<?xml version="1.0" encoding="utf-8"?>
<!-- Generator: Adobe Illustrator 24.3.0, SVG Export Plug-In . SVG Version: 6.00 Build 0)  -->
<svg version="1.1" id="Layer_1" xmlns="http://www.w3.org/2000/svg" xmlns:xlink="http://www.w3.org/1999/xlink" x="0px" y="0px"
	 viewBox="0 0 708 624"  xml:space="preserve">
<style type="text/css">
	.st0{fill:#F0F2F5;}
	.st1{fill:#F2F2F2;}
	.st2{fill:#FFFFFF;}
	.st3{fill:#D2D9E1;}
	.st4{fill:#1F4168;}
	.st5{fill:#F9A21B;}
	.st6{fill:#112E4C;}
	.st7{opacity:0.4;}
	.st8{fill:#FFC89F;}
	.st9{fill:#1B1A2E;}
	.st10{fill:#FF9A6C;}
	.st11{fill:#1F4068;}
	.st12{fill:#E43F5A;}
	.st13{fill:#A65B3C;}
	.st14{fill:#0D0D0D;}
</style>
<g>
	<path class="st0" d="M626.9,387.8c0.6-15.1-2-29.6-7.2-42.7c-6.3,12.5-10.1,26.7-10.7,41.8c-0.6,15.1,2,29.6,7.2,42.7
		C622.5,417.1,626.3,402.9,626.9,387.8z"/>
	<path class="st0" d="M586,445.4c-12.4-9.5-29.2-7.5-29.2-7.5c4.5,8.7,11.2,15.7,19.3,21.8c8.1,6.1,13.8,9.5,20.7,15.6
		C597,475.6,595.9,453,586,445.4z"/>
	<path class="st0" d="M578.3,427.5c13.3,10.7,24.6,18.1,35.3,31.7c-2.6-22.3-9.5-38.9-22.7-49.7c-15.9-13.1-28.1-17.5-43.4-20.8
		C554.7,403.5,565,416.8,578.3,427.5z"/>
	<path class="st0" d="M679.7,492.6c13.3,19.1,21.9,40.4,26,62.3c0,0-28.4-13.1-48.6-44.2c-10.1-15.5-19.5-21.1-29.5-17.6
		C649.7,472.4,666.3,473.6,679.7,492.6z"/>
	<path class="st1" d="M661.1,538.2l-3.9,17.9l-0.2,0.8l-12.9,59.8h-64.2L567,556.9l-0.2-0.8l-3.9-17.9H661.1z"/>
	<path class="st2" d="M654.1,606.9H570l9.9,9.7h64.2L654.1,606.9z"/>
	<path class="st2" d="M657.2,556.1l-0.2,0.8H567l-0.2-0.8H657.2z"/>
	<path class="st2" d="M616.2,538.2l-0.1-33.2l0-33.2l0-33.2l0.1-33.2l0.1,33.2l0,33.2l0,33.2L616.2,538.2z"/>
	<path class="st2" d="M616.2,512.3c0.4-4.1,1.8-8.1,4-11.6c2.1-3.5,5.1-6.3,8.5-8.4c3.4-2.1,7.1-3.3,11-4c1-0.2,1.9-0.3,2.9-0.4
		c1-0.1,1.9-0.2,2.9-0.2c1,0,1.9,0,2.9,0l2.9,0.1l-2.9,0c-1,0-1.9,0.1-2.9,0.1c-1,0.1-1.9,0.2-2.9,0.3c-1,0.2-1.9,0.3-2.9,0.4
		c-3.8,0.7-7.5,2-10.9,4.1c-3.4,2-6.3,4.8-8.5,8.3c-1.1,1.7-2,3.6-2.7,5.5C617,508.2,616.4,510.2,616.2,512.3z"/>
	<path class="st2" d="M616.2,478c0-1.7-0.1-3.4-0.3-5.1c-0.1-1.7-0.3-3.4-0.6-5c-0.5-3.3-1.2-6.6-2.2-9.8c-0.9-3.2-2.1-6.4-3.6-9.4
		c-0.7-1.5-1.5-3-2.4-4.4c-0.8-1.4-1.8-2.8-2.8-4.1c2.1,2.6,3.8,5.4,5.3,8.4c1.5,3,2.7,6.1,3.6,9.4c0.9,3.2,1.6,6.6,2.1,9.9
		C616,471.2,616.3,474.6,616.2,478z"/>
	<path class="st0" d="M641.6,455.2c-8.2,4.3-15.1,7-22.2,13.1c3.6-11.8,9-19.9,17.1-24.3c9.9-5.3,16.9-6.3,25.5-6.3
		C656.7,444.9,649.9,451,641.6,455.2z"/>
	<path class="st2" d="M616.2,478.2c0.3-1.8,0.8-3.6,1.3-5.4c0.6-1.8,1.3-3.5,2.1-5.1c0.8-1.6,1.8-3.2,2.9-4.6
		c1.1-1.5,2.4-2.7,3.7-3.9l-1,0.9l-0.5,0.5l-0.4,0.5c-0.3,0.3-0.6,0.7-0.9,1l-0.8,1.1c-1.1,1.5-2,3-2.8,4.6
		c-0.8,1.6-1.5,3.3-2.1,5.1c-0.3,0.9-0.6,1.7-0.8,2.6C616.6,476.4,616.4,477.3,616.2,478.2z"/>
	<path class="st0" d="M565.4,487.4c-14.2,8.3-25.8,19.6-34.6,32.7c0,0,22.4,0.5,44.4-13.5c11-7,18.8-7.6,24.4-2.1
		C590.8,483.8,579.5,479.2,565.4,487.4z"/>
	<path class="st2" d="M607.5,538.2c0.1-3.6,0-7.1-0.2-10.7c-0.2-3.6-0.4-7.1-0.8-10.6c-0.7-7.1-1.8-14.1-3.4-21
		c-0.8-3.5-1.7-6.9-2.7-10.3c-1.1-3.4-2.2-6.7-3.6-9.9c-1.4-3.2-2.9-6.4-4.6-9.4c-1.8-3-3.7-5.9-5.8-8.6c2.2,2.7,4.2,5.6,5.9,8.6
		c1.7,3,3.3,6.2,4.7,9.4c1.4,3.3,2.6,6.6,3.6,10c1,3.4,2,6.8,2.8,10.3c1.5,6.9,2.6,14,3.3,21.1C607.3,523.9,607.7,531.1,607.5,538.2
		z"/>
	<path class="st2" d="M606.8,520c-0.3-1.4-0.7-2.7-1.2-4.1c-0.5-1.3-1-2.6-1.6-3.9c-1.2-2.5-2.6-4.9-4.2-7.1
		c-0.8-1.1-1.7-2.2-2.6-3.2c-0.9-1-1.9-1.9-3-2.8c-2.1-1.7-4.4-3.2-6.8-4.4c2.4,1.1,4.7,2.6,6.9,4.3c1.1,0.9,2.1,1.8,3,2.8
		c0.9,1,1.8,2.1,2.7,3.2c1.6,2.2,3.1,4.6,4.2,7.2C605.3,514.6,606.3,517.3,606.8,520z"/>
	<path class="st3" d="M567.2,2.1l-203.7,58l54.2,218l203.7-58L567.2,2.1z"/>
	<path class="st0" d="M584.4,18.4l19.2,175.5l-40,54.2l-164,20.5L375,44.6L584.4,18.4z"/>
	<path class="st3" d="M570.5,33.7l-16.2,2l1.9,17.3l16.2-2L570.5,33.7z"/>
	<path class="st3" d="M538,37.8l-16.2,2l1.9,17.3l16.2-2L538,37.8z"/>
	<path class="st3" d="M505.5,41.9l-16.2,2l1.9,17.3l16.2-2L505.5,41.9z"/>
	<path class="st3" d="M473,45.9l-16.2,2l1.9,17.3l16.2-2L473,45.9z"/>
	<path class="st3" d="M440.5,50l-16.2,2l1.9,17.3l16.2-2L440.5,50z"/>
	<path class="st3" d="M408,54.1l-16.2,2l1.9,17.3l16.2-2L408,54.1z"/>
	<path class="st2" d="M568.6,91.3l-162.5,20.4l0.4,3.9L569,95.2L568.6,91.3z"/>
	<path class="st2" d="M570.2,106.1l-162.5,20.4l0.4,3.9L570.6,110L570.2,106.1z"/>
	<path class="st2" d="M571.8,120.9l-162.5,20.4l0.4,3.9l162.5-20.4L571.8,120.9z"/>
	<path class="st2" d="M573.4,135.7l-162.5,20.4l0.4,3.9l162.5-20.4L573.4,135.7z"/>
	<path class="st2" d="M575,150.5l-162.5,20.4l0.4,3.9l162.5-20.4L575,150.5z"/>
	<path class="st2" d="M576.7,165.3l-162.5,20.4l0.4,3.9l162.5-20.4L576.7,165.3z"/>
	<path class="st2" d="M578.3,180.1l-162.5,20.4l0.4,3.9L578.7,184L578.3,180.1z"/>
	<path class="st2" d="M498.6,205.1l-81.3,10.2l0.4,3.9l81.3-10.2L498.6,205.1z"/>
	<path class="st2" d="M603.6,193.9l-40,54.2l-5.3-48.6L603.6,193.9z"/>
	<path class="st3" d="M604.1,74.1l-20.4,2.6l-0.2-1.9l20.4-2.6c3.6-0.5,6.2-4,5.8-7.9c-0.4-3.9-3.7-6.7-7.4-6.2l-13.4,1.7l-0.2-1.9
		l13.4-1.7c4.6-0.6,8.8,3,9.3,7.9C611.9,69.1,608.6,73.5,604.1,74.1z"/>
	<path class="st3" d="M598.7,74.8l-24.9,3.1c-3.7,0.5-7-2.4-7.4-6.3c-0.4-3.9,2.2-7.5,5.9-7.9l24.9-3.1c3.7-0.5,7,2.4,7.4,6.3
		C604.9,70.7,602.3,74.3,598.7,74.8z M572.4,65.5c-2.7,0.3-4.6,3-4.3,5.9c0.3,2.9,2.8,5,5.5,4.6l24.9-3.1c2.7-0.3,4.6-3,4.3-5.9
		c-0.3-2.9-2.8-5-5.5-4.6L572.4,65.5z"/>
	<path class="st4" d="M220.7,555.4H62.3v33.2h158.4V555.4z"/>
	<path class="st2" d="M78.8,555.4h-3.2v33.2h3.2V555.4z"/>
	<path class="st5" d="M210.2,588.6H51v18h159.2V588.6z"/>
	<path class="st2" d="M175.3,588.6h-9.9v18h9.9V588.6z"/>
	<path class="st2" d="M159.5,588.6h-5v18h5V588.6z"/>
	<path class="st4" d="M222.3,516.4H41.6v12.1h180.7V516.4z"/>
	<path class="st0" d="M199,528.5H56.1v26.9H199V528.5z"/>
	<path class="st6" d="M116.4,551.7H51v3.6h65.4V551.7z"/>
	<path class="st6" d="M116.4,528.5H51v3.6h65.4V528.5z"/>
	<path class="st6" d="M116.4,528.5v26.9h86.1v-26.9H116.4z"/>
	<path class="st2" d="M135.2,532.1h-7.6v19.6h7.6V532.1z"/>
	<path class="st0" d="M208.2,497.8h-81.7v18.6h81.7V497.8z"/>
	<path class="st5" d="M143.1,497.8H62.3v18.6h80.8V497.8z"/>
	<path class="st5" d="M210.2,497.8h-67.2v2.2h67.2V497.8z"/>
	<path class="st5" d="M210.2,514.1h-67.2v2.2h67.2V514.1z"/>
	<path class="st2" d="M82.8,497.8h-1v18.6h1V497.8z"/>
	<path class="st2" d="M75.9,497.8h-1v18.6h1V497.8z"/>
	<g class="st7">
		<path class="st4" d="M210.2,516.4v5.5l-148-5.5H210.2z"/>
	</g>
	<g class="st7">
		<path class="st4" d="M62.3,555.4v12.1l140.3-12.1H62.3z"/>
	</g>
	<path class="st5" d="M622.2,600.1c0,0-35.8,23.8-49.8-5.8c0,0-20.7-12.8-15.9-39.3c0,0-3.2-7.4-6.2-18.7c0,0,0,0,0,0
		c-1.5-5.5-2.9-11.8-3.9-18.7c0,0-0.7,14.2,2.5,37.7c0,0,0,0,0,0.1c0,0.1,0,0.1,0,0.2c0,0.1,0,0.2,0,0.2c2.3,16.4,6.6,37.3,14.4,61
		H310.2c0,0,0.1-49.1,1.1-78l-11.7,21.5c0,0,4.7,48.2-34.3,47.3c-48.9-1.1-51-55.8-30.8-71.4l-0.8-4.3c-0.5-2.4,0.4-4.9,2.2-6.5
		l2.2-1.8c0,0,3.7-33.1,24.9-53.9c0,0,37.5-108.3,47.5-107.1c2.7-7.8,28.7-7.4,72.9-20.4c0,0,6-14.4,17.9-19.5
		c14.6-6.2,33.1-3,74.8-3c10.5,0,21.4,21.3,21.4,21.3c29.1,19.8,73.5,17.3,72.5,24.6c3.7-4.3,19.9,28.4,29.7,88.1
		c0,0,21,12.5,23.7,61.8l6.9,28.1C630.3,543.7,649.5,579.4,622.2,600.1z"/>
	<path class="st8" d="M416.5,458c0,0,13.5-33.5-10.5-40.9c0,0-11.5-13.5-6.1-78.2c0,0,70-0.2,77.5,10.2c0,0,3.5,45.8-10.7,81.5
		c0,0-13.3,9.1-23.7,27.4C443,458,429.1,466.1,416.5,458z"/>
	<path class="st4" d="M460.7,616.7H385l8.7-69.9c1.5-10.8,3.7-21.4,6.7-31.8l7-24.7c0.1-0.2,0.1-0.4,0.1-0.5l9-31.7
		c0,0,14,4.8,26.5,0c-0.1,0.1-1.2,1.8-2.6,4.2c-2.9,5.1-4.1,11.2-3.4,17.2c1.3,11.4,3.9,33.4,7.6,57.9c1.7,11.1,3.6,22.8,5.8,34.2
		C453.4,587.8,456.8,603.5,460.7,616.7z"/>
	<path class="st9" d="M356.9,296.4c0,0-17.2,13.4-11.4,28c0,0,0.3-4.1,2-5.7c0,0-1.3,9.4,5.5,13.6c0,0-2.9-10.7,5.9-16
		c0,0,3.1,6.6,9.8,4.8c0,0-1.2,2.2-5.3,2.5c0,0,7.5,4.4,15.8-0.9c0,0,8.6,7,21.1,0.8h83.4c6.7-22.1,32.5-130.2-36-164.3
		c0,0-99.1,33.5-95.3,79.7C356.2,285.1,356.9,296.4,356.9,296.4z"/>
	<path class="st8" d="M477.4,277.6h-77.5v90.1h77.5V277.6z"/>
	<path class="st8" d="M426.6,335.6c28.5,0,51.6-24.7,51.6-55.2v-67.5c0-30.5-23.1-55.2-51.6-55.2c-28.5,0-51.6,24.7-51.6,55.2v67.5
		C375,310.9,398.1,335.6,426.6,335.6z"/>
	<path class="st10" d="M399.9,327.7v11.2c6.6,0.5,17.2,0.8,26.7-4.3C418.8,336.5,406.4,332.3,399.9,327.7z"/>
	<path class="st9" d="M395.6,248c1.8-1.9,1.8-5.1,0-7c-1.8-1.9-4.8-1.9-6.6,0c-1.8,1.9-1.8,5.1,0,7
		C390.9,249.9,393.8,249.9,395.6,248z"/>
	<path class="st9" d="M385.5,235.9c1.2-1.3,2.8-2.3,4.4-3c1.6-0.7,3.4-1.1,5.2-1c0.4,0,0.9,0.1,1.3,0.1l0.7,0.1
		c0.2,0,0.4,0.1,0.6,0.1c0.4,0.1,0.9,0.2,1.3,0.3c0.4,0.2,0.8,0.3,1.2,0.5l0.6,0.3l0.6,0.3l1.2,0.7c0.7,0.5,1.4,1.1,2.1,1.6
		c-0.8-0.4-1.5-0.9-2.3-1.3l-1.2-0.6l-0.6-0.3l-0.6-0.2c-0.4-0.1-0.8-0.3-1.2-0.4c-0.4-0.1-0.8-0.2-1.2-0.3c-0.2,0-0.4-0.1-0.6-0.1
		l-0.6-0.1c-0.4,0-0.8-0.1-1.3-0.1c-1.7-0.1-3.4,0.3-5,0.8c-0.4,0.1-0.8,0.3-1.2,0.5c-0.4,0.2-0.8,0.4-1.2,0.6
		C386.9,234.9,386.2,235.4,385.5,235.9z"/>
	<path class="st9" d="M441.3,249.1c2.5-0.4,4.3-3,3.8-5.7c-0.4-2.7-2.8-4.5-5.3-4.1c-2.5,0.4-4.3,3-3.8,5.7
		C436.4,247.7,438.8,249.5,441.3,249.1z"/>
	<path class="st9" d="M433.2,236.6c1.2-1.3,2.8-2.3,4.4-3c1.6-0.7,3.4-1.1,5.2-1c0.4,0,0.9,0.1,1.3,0.1l0.7,0.1
		c0.2,0,0.4,0.1,0.6,0.1c0.4,0.1,0.9,0.2,1.3,0.3c0.4,0.2,0.8,0.3,1.2,0.5l0.6,0.3l0.6,0.3l1.2,0.7c0.7,0.5,1.4,1.1,2.1,1.6
		c-0.8-0.4-1.5-0.9-2.3-1.3l-1.2-0.6l-0.6-0.3l-0.6-0.2c-0.4-0.1-0.8-0.3-1.2-0.4c-0.4-0.1-0.8-0.2-1.2-0.3c-0.2,0-0.4-0.1-0.6-0.1
		l-0.6-0.1c-0.4,0-0.8-0.1-1.3-0.1c-1.7-0.1-3.4,0.3-5,0.8c-0.4,0.1-0.8,0.3-1.2,0.5c-0.4,0.2-0.8,0.4-1.2,0.6
		C434.6,235.5,433.9,236,433.2,236.6z"/>
	<path class="st9" d="M413.9,261.7c-0.2,2.1-0.4,4.3-0.6,6.4c-0.2,2.1-0.5,4.3-0.8,6.4c-0.1,1.1-0.3,2.1-0.2,3.1c0,1,0.3,2.1,0.7,3
		c0.4,1,1,1.8,1.8,2.4c0.8,0.6,1.7,1.2,2.5,1.8c-0.9-0.5-1.8-1-2.7-1.5c-0.9-0.6-1.6-1.5-2-2.5c-0.5-1-0.7-2.1-0.8-3.2
		c-0.1-1.1,0.1-2.2,0.2-3.3c0.3-2.1,0.6-4.3,0.9-6.4C413.2,265.9,413.5,263.8,413.9,261.7z"/>
	<path class="st9" d="M385.5,218.4c0-1.1,0.3-2.2,0.8-3.2c0.2-0.5,0.5-0.9,0.8-1.4c0.1-0.2,0.3-0.4,0.5-0.6c0.2-0.2,0.3-0.4,0.5-0.6
		c1.4-1.5,3.4-2.6,5.4-3.1c0.5-0.2,1-0.2,1.5-0.2l0.8,0c0.3,0,0.5,0,0.8,0.1c0.5,0.1,1,0.1,1.5,0.2c0.5,0.1,1,0.3,1.4,0.5
		c0.2,0.1,0.5,0.2,0.7,0.3c0.2,0.1,0.4,0.2,0.7,0.4c0.4,0.3,0.9,0.6,1.3,0.9c0.4,0.3,0.8,0.7,1.1,1.1c0.3,0.4,0.7,0.8,0.9,1.3
		c-1.1,0.3-2,0.4-2.8,0.5c-0.4,0.1-0.9,0.1-1.3,0.2c-0.2,0-0.4,0-0.6,0.1c-0.2,0-0.4,0.1-0.6,0.1c-0.4,0.1-0.8,0.1-1.1,0.1
		c-0.4,0.1-0.7,0.2-1.1,0.2c-0.2,0-0.4,0-0.5,0.1c-0.2,0-0.3,0.1-0.5,0.1l-0.5,0.1c-0.2,0-0.3,0.1-0.5,0.1c-1.4,0.3-2.7,0.7-4.1,1.1
		C389.1,217.1,387.5,217.7,385.5,218.4z"/>
	<path class="st9" d="M433.9,215.3c0.4-1.1,1-1.9,1.7-2.7c0.4-0.4,0.8-0.7,1.2-1c0.2-0.1,0.4-0.3,0.6-0.4c0.2-0.1,0.4-0.3,0.7-0.4
		c1.8-0.9,4-1.3,6.1-0.9c0.5,0,1,0.2,1.5,0.4l0.7,0.2c0.2,0.1,0.5,0.2,0.7,0.3c0.5,0.2,0.9,0.5,1.4,0.8c0.4,0.3,0.8,0.7,1.2,1
		c0.2,0.2,0.4,0.3,0.6,0.5c0.2,0.2,0.3,0.4,0.5,0.6c0.3,0.4,0.6,0.8,0.9,1.3c0.3,0.4,0.5,0.9,0.7,1.4c0.2,0.5,0.4,1,0.5,1.6
		c-1.1-0.1-2-0.3-2.8-0.5c-0.4-0.1-0.9-0.2-1.3-0.3c-0.2,0-0.4-0.1-0.6-0.2c-0.2,0-0.4-0.1-0.6-0.1c-0.4-0.1-0.8-0.2-1.1-0.3
		c-0.4-0.1-0.7-0.1-1.1-0.2c-0.2,0-0.3-0.1-0.5-0.1c-0.2,0-0.3,0-0.5-0.1l-0.5-0.1c-0.2-0.1-0.3-0.1-0.5-0.1
		c-1.4-0.2-2.7-0.4-4.2-0.5C437.6,215.4,436,215.3,433.9,215.3z"/>
	<path class="st9" d="M445.3,165.9c0,0-13.2-5.1-32.6,11.8c-19.4,17-32.9,46.9-54.3,59.3c0,0-6.5,53.3,16.3,68.3
		c0,0-17.8,3.5-22.5-21.9c0,0-26.1-24.4,19-110.3c7.8-19.7,62.4-64.1,119.3-17.6c0,0,27.9,16.1,36,72.5c0,0,24.1,77.4-34.1,93.6
		c0,0-16.9,17.8-31,5c0,0,9.9-3.4,13.4-8.2c0,0-19.1,9.6-29.8,0.8c0,0,22.9-3.8,29.3-15.6c0,0-10.3,11.2-20.2-0.6
		c0,0,41.6-2.9,35-63.3c0,0-29.9,15.1-33.7-22.4C451.8,181,445.3,165.9,445.3,165.9z"/>
	<path class="st9" d="M352.1,283.5c-4.2-2.6-7.4-6.7-9.7-11.3c-2.2-4.6-3.3-9.8-3.5-15c0-5.2,0.8-10.3,2-15.2
		c1.2-4.9,2.7-9.8,4.5-14.5l1.4-3.5c0.5-1.2,1-2.3,1.5-3.5c1-2.3,2-4.6,3-6.9c2-4.6,4.1-9.2,6.2-13.7c2.1-4.5,4.3-9.1,6.5-13.5
		c2.3-4.5,4.5-8.9,7-13.3l0.2,0.1c-3.9,9.3-7.9,18.5-12,27.6c-4.2,9.1-8.6,18.2-12.9,27.2c-2,4.6-3.8,9.3-4.8,14.2
		c-0.3,1.2-0.5,2.5-0.7,3.7l-0.2,1.9c-0.1,0.6-0.1,1.2-0.2,1.9c-0.2,2.5-0.2,5,0,7.5c0.2,2.5,0.5,5,1,7.4c0.5,2.4,1.3,4.8,2.2,7
		c1,2.3,2.2,4.4,3.6,6.4c0.7,1,1.5,1.9,2.3,2.8c0.8,0.9,1.7,1.7,2.6,2.5L352.1,283.5z"/>
	<path class="st9" d="M445.3,165.9c1.7,4.2,2.9,8.6,4,13c0.5,2.2,1,4.4,1.4,6.7c0.4,2.2,0.8,4.5,1.1,6.7c0.3,2.3,0.5,4.5,0.7,6.8
		l0.3,3.4c0.1,1.1,0.1,2.3,0.2,3.4l1,13.6c0.1,1.1,0.2,2.3,0.3,3.4c0.1,1.1,0.3,2.2,0.5,3.3c0.4,2.2,0.9,4.4,1.7,6.4
		c0.8,2,1.8,3.9,3.2,5.5c1.4,1.5,3,2.7,4.9,3.5c1.9,0.7,3.9,1.1,5.9,1.2c2.1,0.1,4.1-0.1,6.2-0.3c4.2-0.6,8.3-1.6,12.4-2.8l0.1,0.2
		c-3.9,1.8-8,3.2-12.2,4.1c-2.1,0.4-4.3,0.7-6.5,0.7c-2.2,0-4.4-0.3-6.5-1.2c-1.1-0.4-2.1-1-3-1.7c-0.9-0.7-1.8-1.5-2.5-2.4
		c-1.5-1.8-2.6-3.9-3.3-6.1c-0.7-2.2-1.2-4.5-1.4-6.8c-0.3-2.3-0.3-4.6-0.3-6.9c-0.1-4.5-0.4-9.1-0.9-13.6c-0.1-1.1-0.3-2.2-0.4-3.4
		l-0.5-3.4c-0.3-2.2-0.8-4.5-1.1-6.7c-1.4-8.9-2.9-17.8-5.1-26.6L445.3,165.9z"/>
	<path class="st11" d="M375,223c-1.1,1.5-2.2,3-3.5,4.3c-1.2,1.4-2.6,2.6-3.9,3.9c-1.4,1.2-2.8,2.3-4.4,3.3c-1.5,1-3.1,1.9-4.8,2.6
		c1.4-1.1,2.9-2.2,4.3-3.4c1.4-1.1,2.8-2.3,4.1-3.5c1.4-1.2,2.7-2.4,4.1-3.6C372.2,225.4,373.6,224.2,375,223z"/>
	<path class="st11" d="M445.3,165.8c-3.5-0.6-7-0.3-10.4,0.3c-3.4,0.6-6.8,1.6-10.1,2.9c-6.6,2.3-12.8,6.1-18.2,10.9
		c-2.7,2.4-5.3,4.9-7.9,7.4c-2.6,2.5-5.1,5.2-7.6,7.8c-5.1,5.2-10.3,10.3-16,14.7l-0.1-0.1c5.3-5,10.2-10.3,15.2-15.5
		c2.5-2.6,5.1-5.2,7.7-7.7c2.6-2.5,5.4-4.9,8.2-7.1c0.7-0.6,1.4-1.1,2.2-1.6l1.1-0.8c0.4-0.3,0.7-0.5,1.1-0.8c0.7-0.5,1.5-1,2.2-1.5
		l2.3-1.4l1.1-0.7l1.2-0.7c0.8-0.5,1.5-0.9,2.3-1.4c1.6-0.8,3.2-1.7,4.8-2.4c3.3-1.4,6.8-2.4,10.3-2.8c3.5-0.4,7.1-0.5,10.6,0.6
		L445.3,165.8z"/>
	<path class="st11" d="M454.1,303c6.3-1.2,12.3-3.9,17.6-7.6c2.7-1.9,5.2-4,7.3-6.6c2.1-2.6,3.8-5.5,5.1-8.6
		c2.7-6.2,4.1-13,4.7-19.7c0.7-6.8,0.6-13.7,0.2-20.6l0.1,0c0.2,1.7,0.5,3.4,0.7,5.1c0.2,1.7,0.3,3.4,0.4,5.2
		c0.1,1.7,0.1,3.5,0.1,5.2l-0.1,2.6c-0.1,0.9-0.1,1.7-0.2,2.6l-0.3,2.6c-0.1,0.4-0.1,0.9-0.2,1.3l-0.2,1.3l-0.5,2.6l-0.6,2.5
		c-0.1,0.4-0.2,0.8-0.3,1.3l-0.4,1.2c-0.3,0.8-0.5,1.7-0.8,2.5c-0.3,0.8-0.6,1.6-1,2.4c-0.3,0.8-0.7,1.5-1.1,2.3
		c-1.5,3.1-3.4,5.9-5.4,8.6c-2.1,2.7-4.4,5.2-7,7.2c-2.6,2.1-5.6,3.7-8.6,4.8c-3.1,1.2-6.3,2-9.5,2.1L454.1,303z"/>
	<path class="st11" d="M377.2,303.1c-2.8,0.9-5.9,1.1-8.9,0.7c-1.5-0.2-3-0.6-4.4-1.2c-1.4-0.6-2.8-1.4-4-2.4
		c-2.5-2-4.3-4.6-5.6-7.6c-1.2-2.9-1.9-6.1-2.2-9.2c0.7,3.1,1.6,6.1,3,8.8c0.3,0.7,0.7,1.3,1.1,2c0.2,0.3,0.4,0.6,0.6,0.9
		c0.2,0.3,0.4,0.6,0.7,0.9c0.9,1.2,1.9,2.3,3.1,3.2c2.3,1.9,5,3,7.8,3.6C371.3,303.5,374.2,303.6,377.2,303.1z"/>
	<path class="st11" d="M359.5,221.1c-0.4,3.7-0.6,7.4-0.8,11c-0.2,3.7-0.3,7.4-0.4,11.1c-0.1,7.4,0.2,14.8,1,22.1
		c0.4,3.7,1,7.3,1.8,10.9c0.8,3.6,1.8,7.1,3.1,10.5c1.3,3.4,3,6.6,5.1,9.5c2.1,2.9,4.8,5.3,7.8,7.1c-3.2-1.5-6-3.9-8.3-6.7
		c-2.3-2.8-4.1-6.1-5.5-9.5c-2.8-6.8-4.3-14.2-5.2-21.6c-0.8-7.4-1-14.8-0.8-22.2C357.7,235.8,358.4,228.4,359.5,221.1z"/>
	<path class="st11" d="M444,164.1c-1.1-0.7-2.2-1.2-3.4-1.5c-1.2-0.4-2.4-0.5-3.6-0.6c-2.4-0.1-4.8,0.4-7.1,1.1
		c-1.2,0.3-2.3,0.9-3.4,1.4l-0.4,0.2l-0.4,0.2l-0.8,0.4l-1.6,0.9c-1,0.7-2.1,1.3-3.2,2c-1,0.7-2.1,1.5-3.1,2.2
		c0.9-0.9,1.9-1.8,2.8-2.7c1-0.8,2-1.6,3-2.3c0.5-0.4,1.1-0.7,1.6-1l0.8-0.5l0.4-0.2l0.4-0.2c1.2-0.5,2.3-1.1,3.5-1.5
		c2.4-0.8,5-1.2,7.5-0.9c1.3,0.2,2.5,0.4,3.7,1C441.9,162.5,443.1,163.2,444,164.1z"/>
	<path class="st11" d="M447.1,160.2c2.3-2.6,5-4.8,7.8-6.6c2.9-1.8,6-3.3,9.3-4.2c3.3-0.9,6.7-1.2,10-0.8c3.4,0.3,6.6,1.5,9.5,3.2
		c-1.6-0.6-3.1-1.2-4.8-1.5c-0.8-0.2-1.6-0.3-2.4-0.5l-1.2-0.1c-0.4-0.1-0.8-0.1-1.2-0.1c-1.6-0.1-3.3,0-4.9,0.1
		c-1.6,0.2-3.2,0.5-4.8,0.9c-3.2,0.8-6.2,2.2-9.1,3.8c-1.5,0.8-2.9,1.7-4.3,2.7C449.7,158.1,448.4,159.1,447.1,160.2z"/>
	<path class="st11" d="M486.6,236.8c-0.8-1.8-1.5-3.5-2.2-5.3c-0.7-1.8-1.3-3.6-2-5.4c-1.3-3.6-2.4-7.3-3.5-11
		c-1.1-3.7-2-7.5-2.8-11.3l-2.6-11.3c-0.9-3.8-1.9-7.5-2.8-11.2c-1-3.7-2-7.4-3.2-11.1c-0.6-1.8-1.2-3.6-1.9-5.4
		c-0.7-1.7-1.5-3.5-2.5-5c-1-1.5-2.2-3-3.7-4c-0.8-0.5-1.6-0.8-2.4-1c-0.9-0.2-1.8-0.2-2.7-0.1l0-0.1c1.8-0.4,3.7-0.3,5.4,0.7
		c1.7,0.9,3.1,2.4,4.2,3.9c2.2,3.2,3.6,6.9,4.8,10.6c0.6,1.8,1.1,3.7,1.6,5.6c0.5,1.9,1,3.8,1.4,5.6c0.9,3.8,1.5,7.6,2.3,11.4
		c1.5,7.6,3.8,15,6,22.3c2.2,7.4,4.4,14.7,6.8,22.1L486.6,236.8z"/>
	<path class="st11" d="M479.7,167.6c4.2,5.4,7.4,11.5,10.1,17.9c2.7,6.4,4.7,13,6.3,19.8c0.4,1.7,0.7,3.4,1,5.1
		c0.2,0.9,0.4,1.7,0.5,2.6l0.4,2.6c0.2,1.7,0.5,3.5,0.7,5.2l0.4,5.2l0.2,2.6l0,2.6l0.1,5.2c0,0.9,0,1.7-0.1,2.6l-0.1,2.6
		c-0.1,1.7-0.2,3.5-0.3,5.2c0-1.7,0-3.5,0-5.2l0-2.6c0-0.9,0-1.7-0.1-2.6l-0.3-5.2l-0.1-2.6l-0.3-2.6l-0.5-5.2
		c-0.2-1.7-0.5-3.4-0.7-5.1l-0.4-2.6c-0.1-0.9-0.3-1.7-0.5-2.5c-0.3-1.7-0.7-3.4-1-5.1c-1.5-6.7-3.5-13.3-6-19.7l-0.9-2.4l-1-2.4
		c-0.4-0.8-0.7-1.6-1.1-2.3l-1.1-2.3C483.2,173.4,481.6,170.4,479.7,167.6z"/>
	<path class="st11" d="M445.2,162.5c0.7-0.4,1.6-0.5,2.4-0.2c0.8,0.3,1.5,0.8,2,1.5c0.6,0.7,1,1.4,1.4,2.2c0.4,0.8,0.7,1.6,1,2.4
		c1.1,3.3,1.6,6.7,2,10.1c0.4,3.4,0.8,6.8,1.4,10.1c0.6,3.3,1.3,6.7,2.2,9.9c1.8,6.5,3.8,13,6.4,19.2c2.5,6.2,5.6,12.2,9.2,17.8
		l-0.1,0.1c-4.2-5.1-7.6-11-10.3-17.3c-1.3-3.1-2.4-6.4-3.4-9.6c-1-3.3-1.8-6.6-2.5-9.9c-0.7-3.3-1.3-6.7-2-10
		c-0.7-3.3-1.4-6.7-2-10c-0.3-1.7-0.5-3.4-0.8-5c-0.3-1.7-0.6-3.3-1.1-4.9c-0.5-1.6-1.1-3.2-2-4.5c-0.5-0.6-1-1.2-1.7-1.5
		c-0.7-0.3-1.5-0.4-2.2-0.1L445.2,162.5z"/>
	<path class="st11" d="M450.1,157.6c-1.7-3.3-4.6-5.7-7.8-7c-3.2-1.3-6.7-1.5-10.1-1.1c-3.4,0.4-6.8,1.5-10,2.8
		c-3.3,1.3-6.4,2.9-9.6,4.6c2.9-2.1,6-4,9.3-5.5c1.6-0.8,3.3-1.4,5-1.9c1.7-0.5,3.5-0.9,5.2-1.2c1.8-0.2,3.6-0.3,5.4-0.1
		c1.8,0.2,3.6,0.7,5.2,1.5c1.7,0.8,3.2,1.9,4.5,3.2c0.6,0.7,1.2,1.4,1.7,2.2C449.3,155.9,449.8,156.7,450.1,157.6z"/>
	<path class="st11" d="M409.4,159.3c-4.8,4.3-9.2,9-13.2,14c-1,1.2-2.1,2.5-3,3.8c-0.5,0.6-1,1.3-1.5,2c-0.5,0.7-0.9,1.3-1.4,2
		c-1.8,2.7-3.3,5.7-4.6,8.7c-0.3,0.8-0.6,1.5-1,2.3l-0.9,2.3c-0.6,1.5-1.2,3.1-1.9,4.6c-1.4,3-2.9,6-4.5,8.8c-1.7,2.8-3.6,5.5-5.7,8
		c-2.1,2.5-4.4,4.9-7.1,6.6l-0.1-0.1c2.4-2.1,4.5-4.6,6.5-7.1c1.9-2.6,3.7-5.3,5.4-8.1c0.8-1.4,1.6-2.8,2.4-4.3
		c0.8-1.4,1.5-2.9,2.2-4.4c0.4-0.7,0.7-1.5,1-2.2l1-2.2c0.3-0.8,0.7-1.5,1-2.3c0.4-0.7,0.7-1.5,1.1-2.2c1.5-2.9,3.2-5.8,4.9-8.6
		c1.7-2.8,3.5-5.6,5.4-8.2c2-2.6,4.2-5,6.5-7.3c2.3-2.3,4.8-4.4,7.4-6.1L409.4,159.3z"/>
	<path class="st11" d="M473.3,150.7c2.4,0.2,4.7,0.9,6.8,2.1c2.1,1.1,4.2,2.6,5.9,4.4c3.6,3.5,6.3,7.7,8.7,12.1l0.5,0.8l0.4,0.8
		l0.8,1.7l0.8,1.7l0.7,1.7c0.5,1.2,1,2.3,1.5,3.5l1.3,3.5c0.2,0.6,0.4,1.2,0.6,1.8l0.6,1.8l1.2,3.6c0.4,1.2,0.7,2.4,1,3.6
		c0.3,1.2,0.7,2.4,1,3.6c-0.9-2.4-1.7-4.7-2.6-7.1l-1.3-3.5l-0.7-1.8c-0.2-0.6-0.5-1.2-0.7-1.7l-1.4-3.5c-0.5-1.1-1-2.3-1.5-3.4
		l-0.8-1.7l-0.8-1.7l-0.8-1.7l-0.4-0.8l-0.5-0.8c-2.3-4.4-5-8.5-8.3-12c-0.4-0.4-0.8-0.9-1.3-1.3l-1.4-1.2c-0.4-0.4-0.9-0.7-1.4-1.1
		c-0.5-0.3-1-0.7-1.5-1C477.9,152,475.6,151.2,473.3,150.7z"/>
	<path class="st11" d="M508.7,205.3l3.7,10.2c1.2,3.4,2.5,6.8,3.7,10.2c1.2,3.4,2.5,6.8,4,10.1c0.7,1.6,1.5,3.3,2.2,4.9l0.5,1.3
		l0.5,1.3c0.3,0.8,0.6,1.7,0.9,2.6c1.2,3.5,2,7.1,2.4,10.7c0.2,1.8,0.4,3.7,0.5,5.5c0.1,1.8,0.1,3.7,0,5.5
		c-0.2,3.7-0.7,7.3-1.3,10.9c-0.3,1.8-0.7,3.6-1.1,5.4c-0.4,1.8-0.8,3.6-1,5.4l-0.1,0c0.1-1.8,0.3-3.7,0.6-5.5
		c0.3-1.8,0.5-3.6,0.8-5.4c0.5-3.6,0.9-7.2,1-10.8c0.1-3.6,0-7.2-0.4-10.8c-0.4-3.6-1.1-7.1-2-10.6c-0.5-1.7-1-3.5-1.7-5.1
		c-0.3-0.9-0.7-1.7-1-2.5c-0.3-0.8-0.7-1.6-1.1-2.5c-1.5-3.3-3-6.6-4.4-9.9c-1.4-3.3-2.6-6.8-3.8-10.2c-1.1-3.5-2.1-7-3-10.5
		L508.7,205.3z"/>
	<path class="st11" d="M487.5,154.6c2.9,2.6,5.5,5.6,7.9,8.7c2.4,3.1,4.6,6.4,6.5,9.9c0.9,1.8,1.8,3.5,2.6,5.4
		c0.2,0.5,0.4,0.9,0.6,1.4l0.6,1.4c0.4,0.9,0.8,1.8,1.1,2.8l4.4,11.1c1.5,3.7,2.9,7.4,4.2,11.2l4.1,11.2l2,5.6l1,2.8l1,2.8
		c0.7,1.9,1.4,3.7,2.2,5.5c0.7,1.8,1.6,3.6,2.5,5.4l-0.1,0.1c-1.1-1.6-2.1-3.4-2.9-5.2c-0.9-1.8-1.7-3.6-2.5-5.4
		c-1.6-3.7-3-7.4-4.4-11.1c-1.4-3.7-2.7-7.5-3.9-11.3c-1.3-3.8-2.5-7.6-3.8-11.3c-1.3-3.8-2.6-7.5-4.1-11.2
		c-1.5-3.7-3.4-7.2-5.4-10.5c-2-3.4-4.1-6.7-6.4-9.8C492.4,160.6,490,157.5,487.5,154.6L487.5,154.6z"/>
	<path class="st11" d="M495,307.9c1.8-1.4,3.2-3.3,4.5-5.3c1.2-2,2.2-4.1,3.1-6.3c0.9-2.2,1.7-4.4,2.5-6.7c0.8-2.3,1.5-4.5,2.2-6.8
		c-0.2,2.4-0.7,4.8-1.4,7.1c-0.6,2.3-1.4,4.6-2.3,6.9c-0.5,1.1-1,2.2-1.6,3.3c-0.6,1.1-1.2,2.1-1.9,3.1
		C498.8,305.1,497.1,306.9,495,307.9z"/>
	<path class="st11" d="M500.4,287.2c0.8,0.3,1.6,0.4,2.3,0.3c0.7-0.1,1.3-0.4,1.8-0.9c0.3-0.2,0.5-0.5,0.8-0.8
		c0.2-0.3,0.5-0.6,0.7-0.9c0.2-0.3,0.4-0.7,0.6-1c0.2-0.4,0.4-0.7,0.7-1.1c0,0.4-0.1,0.9-0.2,1.3c-0.1,0.4-0.2,0.9-0.4,1.3
		c-0.1,0.2-0.2,0.4-0.3,0.6c-0.1,0.2-0.2,0.4-0.3,0.6c-0.3,0.4-0.5,0.7-0.9,1c-0.7,0.6-1.7,1-2.6,0.8
		C501.8,288.4,501,287.9,500.4,287.2z"/>
	<path class="st11" d="M497,212.8c1.6,2.8,3.1,5.7,4.3,8.7c1.3,3,2.4,6.1,3.3,9.2c0.9,3.2,1.6,6.4,2.3,9.6c0.7,3.2,1.4,6.4,1.9,9.7
		c0.5,3.3,0.8,6.6,0.8,9.9c0,1.7-0.1,3.3-0.2,5l-0.3,2.5c-0.1,0.8-0.3,1.6-0.4,2.5c-0.7,3.3-1.6,6.5-3,9.4c-1.4,3-3.3,5.7-5.4,8.1
		l-0.1-0.1c1.8-2.6,3.4-5.4,4.7-8.4c1.2-3,2.1-6.1,2.6-9.3c0.6-3.2,0.9-6.4,1-9.7c0.1-3.3-0.1-6.5-0.4-9.8c-0.3-3.3-0.8-6.5-1.6-9.7
		c-0.8-3.2-1.8-6.3-2.9-9.3c-2.1-6.2-4.3-12.2-6.9-18.2L497,212.8z"/>
	<path class="st11" d="M474.8,318.4c2.2-1.4,4.1-3,6-4.8c1.8-1.8,3.5-3.8,5.1-5.8c3.1-4.2,5.6-8.8,7.5-13.7c1-2.4,1.8-5,2.5-7.5
		c0.3-1.3,0.7-2.6,0.9-3.9l0.4-1.9l0.3-2c0.9-5.3,1.4-10.6,1.5-16c0.3,5.4,0.2,10.8-0.6,16.1l-0.3,2l-0.4,2c-0.2,1.3-0.6,2.6-0.9,4
		c-0.7,2.6-1.5,5.2-2.5,7.7c-1,2.5-2.1,4.9-3.4,7.3c-1.3,2.3-2.8,4.5-4.4,6.6c-1.6,2.1-3.5,4-5.4,5.7c-1,0.9-2,1.7-3.1,2.4
		C477,317.2,476,317.9,474.8,318.4z"/>
	<path class="st11" d="M360.9,211.4c0.2-2.5,0.5-5,0.9-7.4c0.4-2.5,0.9-4.9,1.4-7.4c0.5-2.4,1.1-4.9,1.8-7.3c0.7-2.4,1.5-4.8,2.5-7
		c-0.6,2.4-1.1,4.9-1.6,7.3l-1.6,7.3C363.2,201.7,362.2,206.6,360.9,211.4z"/>
	<path class="st11" d="M458.4,152.3c0.3-1,0.4-2,0.2-3c-0.1-1-0.5-1.9-1.1-2.6c-0.5-0.8-1.2-1.4-2-2l-1.2-0.8
		c-0.4-0.2-0.8-0.5-1.2-0.7c-1.7-1-3.4-1.7-5.2-2.4c-1.8-0.7-3.6-1.3-5.5-1.9c2,0.1,3.9,0.4,5.8,1c1.9,0.5,3.7,1.3,5.5,2.3
		c0.4,0.3,0.9,0.5,1.3,0.8c0.4,0.3,0.8,0.6,1.2,0.9c0.8,0.7,1.6,1.4,2.1,2.4c0.5,0.9,0.9,2,0.9,3.1
		C459.2,150.3,458.9,151.4,458.4,152.3z"/>
	<path class="st11" d="M469.2,149.1c-0.2-1.3-0.3-2.4-0.6-3.5c-0.2-0.5-0.3-1.1-0.5-1.6c-0.2-0.6-0.5-1.1-0.7-1.7
		c1.2,0.5,2,1.7,2.4,3c0.2,0.7,0.2,1.3,0.2,2C469.8,147.9,469.6,148.6,469.2,149.1z"/>
	<path class="st11" d="M519.3,267.1c-0.1,4.5-0.7,9.1-1.5,13.5c-0.8,4.5-2,8.9-3.6,13.1c-0.8,2.1-1.8,4.2-2.9,6.1
		c-1.2,1.9-2.5,3.8-4.2,5.3c-1.6,1.5-3.6,2.7-5.8,3.1c-2.1,0.5-4.3,0.3-6.4-0.4c2.1,0.4,4.2,0.5,6.2-0.2c2-0.6,3.8-1.8,5.3-3.3
		c1.5-1.5,2.8-3.3,3.9-5.2c1.1-1.9,2-3.9,2.8-6c1.6-4.1,2.8-8.5,3.8-12.9c0.5-2.2,0.9-4.4,1.3-6.6
		C518.6,271.6,519,269.4,519.3,267.1z"/>
	<path class="st11" d="M366.4,302.9c0.3,1.4,0.3,2.8,0.1,4.2c-0.1,0.3-0.1,0.7-0.2,1.1l-0.3,1c-0.1,0.3-0.3,0.7-0.4,1
		c-0.1,0.3-0.3,0.6-0.5,1c-0.7,1.2-1.6,2.4-2.7,3.2c-0.5,0.5-1.1,0.8-1.7,1.1c-0.6,0.3-1.2,0.6-1.8,0.8c0.5-0.5,1-0.8,1.5-1.3
		c0.5-0.5,1-0.9,1.4-1.4c0.2-0.2,0.4-0.5,0.6-0.7l0.6-0.8c0.2-0.2,0.4-0.5,0.5-0.8c0.2-0.3,0.4-0.5,0.5-0.8c0.7-1.1,1.1-2.3,1.5-3.6
		C366,305.7,366.2,304.3,366.4,302.9z"/>
	<path class="st11" d="M384.7,312.8c0,1-0.1,2-0.4,3c-0.3,1-0.6,1.9-1.1,2.8c-0.5,0.9-1.1,1.7-1.7,2.4c-0.7,0.7-1.5,1.3-2.3,1.7
		c0.6-0.8,1.1-1.6,1.6-2.4c0.5-0.8,1-1.6,1.4-2.4c0.4-0.8,0.9-1.7,1.3-2.5L384.7,312.8z"/>
	<path class="st8" d="M483.1,274.9h-2.7c-5.2,0-9.5-4.6-9.5-10.2v-18.2c0-5.6,4.3-10.2,9.5-10.2h2.7c5.2,0,9.5,4.6,9.5,10.2v18.2
		C492.6,270.4,488.3,274.9,483.1,274.9z"/>
	<path class="st10" d="M478.8,242.5c0.9-0.1,1.9-0.1,2.8,0.2c0.9,0.2,1.8,0.7,2.6,1.2c1.6,1.1,2.9,2.8,3.5,4.8c0.3,1,0.5,2,0.5,3.1
		c0,1,0,2-0.1,2.9c-0.1,2-0.2,3.9-0.5,5.9c-0.2-2-0.4-3.9-0.5-5.9c-0.1-1-0.1-2-0.1-2.9c0-0.9-0.2-1.8-0.5-2.7
		c-0.3-0.9-0.7-1.7-1.2-2.4c-0.5-0.7-1.1-1.4-1.8-2c-0.7-0.6-1.4-1.1-2.3-1.4C480.6,242.9,479.7,242.6,478.8,242.5z"/>
	<path class="st10" d="M482.3,263.3c-0.5-0.3-0.9-0.7-1.3-1.1c-0.4-0.5-0.6-1-0.8-1.5c-0.2-0.6-0.3-1.2-0.3-1.8
		c0-0.6,0.1-1.2,0.3-1.8c0.2,0.6,0.4,1.1,0.6,1.6l0.5,1.5l0.5,1.5C482,262.2,482.2,262.7,482.3,263.3z"/>
	<path class="st12" d="M428.6,294.4c-1.1,1.7-2.9,3-4.8,3.5c-2,0.5-4,0.4-5.7-0.4c-0.9-0.4-1.7-0.9-2.4-1.5c-0.4-0.3-0.7-0.7-1-1
		c-0.3-0.4-0.6-0.8-0.8-1.3c0.6-0.1,1.2-0.2,1.7-0.2c0.3,0,0.6-0.1,0.8-0.1h0c0.8-0.1,1.5-0.2,2.2-0.3c1.4-0.2,2.6-0.4,3.7-0.7
		c1.1-0.3,2.2-0.7,3.4-1.3c0.3-0.2,0.6-0.3,1-0.5c0.3-0.2,0.6-0.3,1-0.5c0.1-0.1,0.3-0.1,0.4-0.2c0,0,0.1-0.1,0.1-0.1
		c0.2-0.1,0.4-0.2,0.6-0.3c0.4-0.2,0.8-0.5,1.2-0.7C430.3,290.8,429.7,292.7,428.6,294.4z"/>
	<path class="st2" d="M428.1,289.8c-0.1,0.3-0.3,0.6-0.5,0.9c-1.1,1.8-3,3.3-5.1,3.9c-2.1,0.6-4.3,0.3-6-0.5
		c-0.3-0.2-0.6-0.3-0.9-0.5c0.3,0,0.6-0.1,0.8-0.1h0c0.8-0.1,1.5-0.2,2.2-0.3c1.4-0.2,2.6-0.4,3.7-0.7c1.1-0.3,2.2-0.7,3.4-1.3
		c0.3-0.2,0.6-0.3,1-0.5c0.3-0.2,0.6-0.3,1-0.5C427.9,290,428,289.9,428.1,289.8z"/>
	<path class="st5" d="M485.6,276.8c2.1-2.2,2.1-5.8,0-8c-2.1-2.2-5.4-2.2-7.4,0c-2.1,2.2-2.1,5.8,0,8
		C480.2,279,483.5,279,485.6,276.8z"/>
	<g class="st7">
		<path class="st13" d="M544.3,482.4c-10.7,5-18.1,12.9-22,17.8c-2.1,2.7-5.4,4-8.7,3.4c-11-2.1-22.3-2.7-29.4-2.8
			c0,0,18,4.6,31.2,5.2c3,0.2,6-1.2,8-3.6C528.4,496.4,538.5,485.1,544.3,482.4z"/>
	</g>
	<g class="st7">
		<path class="st13" d="M471,434.4c14.9-15.5,28.7,7.6,46.2,3.4C497.4,444.2,483.6,427.9,471,434.4z"/>
	</g>
	<g class="st7">
		<path class="st4" d="M400.1,616.7H385l8.7-69.9c1.5-10.8,3.7-21.4,6.7-31.8l7-24.7C405.8,496.3,393.2,550.8,400.1,616.7z"/>
	</g>
	<g class="st7">
		<path class="st13" d="M360.3,426.4c0,0,5.3,2.8,15-6.3c9.7-9.1,23-10.6,28.7-0.2C396.2,411.9,373,431.6,360.3,426.4z"/>
	</g>
	<g class="st7">
		<path class="st13" d="M308.2,470.2c5.3,3.3,13.1,8.5,20.9,15.2c1.8,1.5,4,2.3,6.3,2.2l30.8-1.6l-30.6,4.5
			c-2.7,0.4-5.5-0.5-7.6-2.4C317.8,478.9,308.2,470.2,308.2,470.2z"/>
	</g>
	<g class="st7">
		<path class="st4" d="M450.4,571.6c0,0-8.5,13.8-29.8,21.4c0,0,27.7-11.3,24.1-55.7C446.3,548.5,448.2,560.1,450.4,571.6z"/>
	</g>
	<g class="st7">
		<path class="st13" d="M271,599.2c0,0-6.3,8.6-16.9,6.1C243.7,603,271,599.2,271,599.2z"/>
	</g>
	<g class="st7">
		<path class="st13" d="M240.1,526.5c0,0,22.8-3.3,43.6,14.5c0,0-8.3-7.6-16.6-13.5c-3-2.1-6.5-3.1-10-2.9
			C253.1,524.9,247.1,525.5,240.1,526.5z"/>
	</g>
	<g class="st7">
		<path class="st13" d="M310.4,498.3c0,0,1.2,21.7,0.9,40.4l-11.7,21.5C311.3,532.8,310.4,498.3,310.4,498.3z"/>
	</g>
	<g class="st7">
		<path class="st13" d="M563.5,616.7h-30.2c23.4-12.3,16.7-54.8,15.9-61C551.4,572.1,555.6,593,563.5,616.7z"/>
	</g>
	<g class="st7">
		<path class="st13" d="M550.4,536.2c-1.5-5.5-2.9-11.8-3.9-18.7c0,0,1.3-28.2,4.8-51.5C551.2,466,548.9,494.2,550.4,536.2z"/>
	</g>
	<path class="st13" d="M403.9,419.9l-0.8,4.4c-0.1,0.7-0.3,1.5-0.4,2.2c-0.1,0.7,0.1,1.4,0.5,2c0.4,0.6,0.9,1,1.6,1.2
		c0.3,0.1,0.7,0.1,1,0.2c0.3,0.1,0.7,0.1,1,0.2c1.4,0.3,2.7,0.7,4,1.2c1.3,0.6,2.5,1.3,3.6,2.2c0.6,0.5,1.1,1,1.5,1.5
		c0.5,0.5,0.9,1.2,1.3,1.8c0.4,0.6,0.7,1.3,0.9,2c0.1,0.4,0.2,0.7,0.3,1.1l0.1,0.5l0.1,0.5c0.3,1.5,0.3,3,0.2,4.4
		c0-1.5-0.1-3-0.4-4.4l-0.1-0.5l-0.1-0.5c-0.1-0.4-0.2-0.7-0.3-1c-0.3-0.7-0.6-1.3-0.9-2c-0.7-1.2-1.7-2.3-2.8-3.2
		c-1.1-0.9-2.3-1.6-3.6-2.1c-1.3-0.6-2.6-1-4-1.2c-0.3-0.1-0.7-0.1-1-0.2c-0.3-0.1-0.7-0.1-1-0.2c-0.7-0.2-1.3-0.7-1.7-1.3
		c-0.4-0.6-0.6-1.5-0.5-2.2c0.1-0.7,0.3-1.5,0.4-2.2L403.9,419.9z"/>
	<path class="st13" d="M360.3,426.4c1,0.4,2,0.4,3,0.3c1-0.1,2-0.4,3-0.8c1.9-0.7,3.7-1.8,5.4-3.1c1.7-1.2,3.3-2.7,4.9-4.1
		c1.6-1.4,3.4-2.6,5.2-3.6c1.9-1,3.8-1.8,5.9-2.2c2-0.5,4.1-0.6,6.2-0.3c2.1,0.3,4.1,1,5.8,2.3c0.9,0.6,1.7,1.4,2.4,2.2
		c0.7,0.8,1.3,1.8,1.8,2.7l0,0c-0.6-0.9-1.2-1.8-1.9-2.6c-0.7-0.8-1.5-1.5-2.4-2.1c-1.7-1.2-3.7-1.9-5.7-2.2c-2-0.3-4.1-0.1-6.1,0.3
		c-2,0.4-4,1.2-5.8,2.1c-1.9,1-3.6,2.1-5.2,3.5c-0.8,0.7-1.6,1.4-2.4,2.1c-0.8,0.7-1.6,1.4-2.4,2.1c-1.7,1.3-3.5,2.4-5.5,3.1
		c-1,0.3-2,0.6-3.1,0.7C362.3,427,361.2,426.9,360.3,426.4L360.3,426.4z"/>
	<path class="st13" d="M383.3,342.2c-1.7,3.2-3.2,6.5-4.7,9.9c-1.5,3.3-2.9,6.7-4.2,10.1c-2.7,6.8-5.1,13.7-7.1,20.8
		c-0.5,1.8-1,3.5-1.5,5.3c-0.4,1.8-0.9,3.6-1.3,5.4c-0.4,1.8-0.8,3.6-1.2,5.4c-0.2,0.9-0.3,1.8-0.5,2.7l-0.3,1.4l-0.2,1.4
		c-1.2,7.3-2,14.6-2.1,22c0-3.7,0.1-7.4,0.5-11.1c0.3-3.7,0.8-7.3,1.4-11c0.6-3.6,1.3-7.3,2.1-10.8c0.4-1.8,0.9-3.6,1.3-5.4
		c0.5-1.8,0.9-3.6,1.5-5.3c2.1-7.1,4.5-14,7.2-20.8C376.9,355.3,379.9,348.6,383.3,342.2z"/>
	<path class="st13" d="M238.1,526.8c5-0.8,10.2-0.6,15.2,0.1c2.5,0.4,5,0.9,7.5,1.6c2.5,0.7,4.9,1.5,7.3,2.5c4.7,2,9.2,4.7,13.3,7.9
		l1.5,1.2c0.2,0.2,0.5,0.4,0.8,0.6l0.7,0.7l1.5,1.3l1.4,1.4c0.9,0.9,1.8,1.9,2.7,2.9c0.5,0.5,0.9,1,1.3,1.5l1.3,1.5l-1.3-1.5
		c-0.4-0.5-0.8-1-1.3-1.5c-0.9-0.9-1.8-1.9-2.8-2.8l-1.4-1.4l-1.5-1.3l-0.7-0.6c-0.2-0.2-0.5-0.4-0.8-0.6l-1.5-1.2
		c-4.1-3.1-8.6-5.8-13.3-7.8c-2.4-1-4.8-1.9-7.2-2.6c-2.5-0.7-4.9-1.2-7.4-1.6c-2.5-0.4-5-0.6-7.6-0.7
		C243.1,526.4,240.6,526.4,238.1,526.8z"/>
	<path class="st13" d="M238.1,523.5c3.2-2.5,6.6-4.6,10.2-6.4c3.6-1.8,7.4-3.2,11.2-4.1c1.9-0.5,3.9-0.8,5.9-1c2-0.2,4-0.2,5.9,0
		c2,0.1,3.9,0.5,5.9,1l1.4,0.4c0.5,0.2,0.9,0.3,1.4,0.5l0.7,0.3c0.2,0.1,0.5,0.2,0.7,0.3l1.4,0.6c-3.6-1.6-7.5-2.6-11.4-2.9
		c-3.9-0.3-7.9,0.2-11.7,1.1c-1.9,0.5-3.8,1-5.7,1.7c-1.9,0.7-3.7,1.5-5.5,2.3c-1.8,0.9-3.6,1.8-5.3,2.8
		C241.4,521.2,239.7,522.3,238.1,523.5z"/>
	<path class="st13" d="M269.4,531.8c3,1.9,5.5,4.5,7.6,7.4c2.1,2.9,3.8,6.2,5.2,9.6c1.4,3.4,2.3,7,3,10.6c0.6,3.6,0.9,7.3,0.9,11.1
		c-0.1,3.7-0.6,7.4-1.6,11c-1,3.6-2.4,7-4.4,10c-2,3-4.5,5.7-7.3,7.8c-2.9,2.1-6.1,3.6-9.4,4.6c3.3-1.1,6.5-2.7,9.3-4.8
		c2.8-2.1,5.3-4.8,7.2-7.8c1.9-3,3.4-6.4,4.3-10c1-3.5,1.4-7.2,1.5-10.9c0.2-7.4-1.1-14.7-3.7-21.6c-1.3-3.4-3-6.7-5-9.6
		C274.9,536.4,272.4,533.8,269.4,531.8z"/>
	<path class="st13" d="M277.7,472.3c3.3,1.1,6.5,2.6,9.6,4.3c1.5,0.8,3.1,1.7,4.5,2.7c1.5,1,2.9,2,4.4,3c1.4,1.1,2.8,2.2,4.1,3.4
		c0.7,0.6,1.3,1.2,2,1.8c0.6,0.6,1.3,1.3,1.9,2c1.2,1.3,2.3,2.7,3.4,4.2l0.8,1.1c0.3,0.4,0.5,0.8,0.7,1.1c0.5,0.8,0.9,1.6,1.4,2.3
		c-1.9-3.1-4.1-6-6.5-8.6c-0.6-0.7-1.2-1.3-1.9-1.9c-0.6-0.6-1.3-1.2-2-1.8c-1.3-1.2-2.7-2.3-4.1-3.4c-2.8-2.2-5.8-4.1-8.8-5.8
		c-1.5-0.9-3.1-1.7-4.7-2.4C280.9,473.6,279.3,472.9,277.7,472.3z"/>
	<path class="st13" d="M410.8,434.4c-1.8,7.7-3.9,15.3-6.2,22.8c-1.2,3.8-2.4,7.5-3.6,11.2c-1.3,3.7-2.6,7.4-4,11.1
		c-2.7,7.3-5.7,14.6-8.9,21.7c-0.8,1.8-1.6,3.6-2.4,5.3l-2.5,5.3c-1.6,3.5-3.1,7.2-4.4,10.9c-2.6,7.4-4.4,15.1-5.5,22.9
		c-0.5,3.9-0.9,7.8-1.1,11.8l-0.7,11.8c-0.5,7.9-1,15.8-1.5,23.7l-0.8,11.8l-0.8,11.8l0,0l0.7-11.8l0.7-11.8
		c0.5-7.9,0.9-15.8,1.4-23.7l0.7-11.8c0.2-3.9,0.5-7.9,1.1-11.8c1.1-7.8,3-15.5,5.6-23c1.3-3.7,2.8-7.3,4.5-10.9l2.5-5.3
		c0.8-1.8,1.7-3.5,2.4-5.3c3.2-7.1,6.1-14.4,8.8-21.8c1.4-3.7,2.6-7.4,3.9-11.1c1.3-3.7,2.5-7.4,3.7-11.2c1.2-3.7,2.3-7.5,3.4-11.3
		C408.8,442,409.9,438.2,410.8,434.4L410.8,434.4z"/>
	<path class="st13" d="M311.3,533.9c0-2.7-0.1-5.3-0.1-8c-0.1-2.7-0.1-5.3-0.2-8c-0.2-5.3-0.3-10.6-0.6-15.9c-0.1-2.7-0.3-5.3-0.4-8
		c-0.2-2.7-0.3-5.3-0.5-8l-0.3-4l-0.3-4l-0.1-2l-0.2-2l-0.3-4c0.6,5.3,1.1,10.6,1.5,15.9c0.4,5.3,0.7,10.6,1,15.9
		c0.2,5.3,0.4,10.6,0.5,15.9c0,2.7,0.1,5.3,0.1,8C311.4,528.6,311.4,531.3,311.3,533.9z"/>
	<path class="st9" d="M431.5,477.2c-1.7,0-3.3-0.1-5-0.3c-1.6-0.2-3.3-0.6-4.9-1.1c-1.6-0.5-3.2-1.2-4.6-2c-1.5-0.8-2.9-1.8-4.1-3
		c0.7,0.5,1.3,1.1,2,1.5l0.5,0.3l0.3,0.2l0.3,0.2l1.1,0.6c1.5,0.7,3,1.4,4.6,1.9c1.6,0.5,3.2,0.9,4.8,1.2c0.8,0.2,1.6,0.3,2.5,0.4
		C429.9,477.1,430.7,477.1,431.5,477.2z"/>
	<path class="st9" d="M450.4,571.6c-2.7,3.6-5.8,6.8-9.1,9.7c-3.3,2.9-6.9,5.5-10.7,7.6c-1,0.5-1.9,1-2.9,1.5c-1,0.4-2,0.9-3,1.3
		c-0.5,0.2-1,0.4-1.5,0.6c-0.5,0.2-1,0.4-1.5,0.5c-1,0.3-2.1,0.6-3.1,0.9c-4.2,1-8.6,1.3-12.8,0.9l1.6,0.1l0.8,0l0.8,0l1.6,0
		l1.6-0.1c0.3,0,0.5,0,0.8-0.1l0.8-0.1c0.5-0.1,1.1-0.1,1.6-0.2c1.1-0.2,2.1-0.4,3.2-0.7c1-0.2,2.1-0.6,3.1-0.9
		c0.5-0.2,1-0.4,1.5-0.5c0.5-0.2,1-0.4,1.5-0.6c1-0.4,2-0.9,3-1.3c1-0.5,1.9-1,2.9-1.5c3.8-2.1,7.4-4.7,10.7-7.5
		c1.7-1.4,3.3-2.9,4.8-4.5C447.5,575,449,573.3,450.4,571.6z"/>
	<path class="st4" d="M412.1,462.9c-0.1,0-3.3,0-6.4-1.4c-0.3-0.1-0.4-0.4-0.3-0.7c0.1-0.3,0.4-0.4,0.7-0.3c3,1.3,6,1.4,6,1.4
		c0.3,0,0.5,0.2,0.5,0.6C412.6,462.6,412.4,462.9,412.1,462.9z"/>
	<path class="st4" d="M389.2,535.9c-0.1,0-3.3,0-6.4-1.4c-0.3-0.1-0.4-0.4-0.3-0.7c0.1-0.3,0.4-0.4,0.7-0.3c3,1.3,6,1.4,6,1.4
		c0.3,0,0.5,0.2,0.5,0.6C389.7,535.6,389.5,535.9,389.2,535.9z"/>
	<path class="st4" d="M380.4,599.1c-1.2,0-3-0.1-4.9-0.7c-0.3-0.1-0.4-0.4-0.4-0.7c0.1-0.3,0.4-0.5,0.6-0.4c3.1,1,6.1,0.6,6.1,0.6
		c0.3,0,0.5,0.2,0.6,0.5c0,0.3-0.2,0.6-0.5,0.6C382,599.1,381.3,599.1,380.4,599.1z"/>
	<path class="st13" d="M376.7,469c0.1-0.4,0.2-0.8,0.2-1.2c0-0.4-0.1-0.8-0.2-1.2c-0.3-0.8-0.8-1.5-1.5-1.9
		c-0.7-0.4-1.5-0.5-2.3-0.6l-2.3-0.4l-2.3-0.4l-2.3-0.5c-1.6-0.3-3.1-0.6-4.6-1c-6.2-1.4-12.3-2.9-18.5-4.6
		c-6.1-1.7-12.2-3.6-18.2-5.6c-3-1-6-2.1-9-3.2l-2.2-0.9l-1.1-0.4c-0.4-0.2-0.7-0.3-1.1-0.3c-0.8-0.1-1.6,0.2-2.2,0.6
		c-0.7,0.5-1.1,1.2-1.3,2c0.2-0.8,0.6-1.6,1.3-2.1c0.6-0.5,1.5-0.8,2.2-0.7c0.4,0,0.8,0.1,1.2,0.3l1.1,0.4l2.2,0.8
		c3,1.1,6,2.1,9,3.1c6,2,12.1,3.8,18.2,5.5c6.1,1.7,12.3,3.3,18.4,4.7c1.5,0.4,3.1,0.7,4.6,1l2.3,0.5l2.3,0.5l2.3,0.5l1.2,0.2
		c0.4,0.1,0.8,0.2,1.1,0.4c0.7,0.4,1.2,1.1,1.5,1.9c0.1,0.4,0.2,0.8,0.2,1.2C377,468.2,376.9,468.6,376.7,469z"/>
	<path class="st13" d="M307.7,449.4c-1,4.6-2.5,9.1-4.3,13.5c-0.4,1.1-0.3,2.3,0.1,3.4c0.2,0.5,0.5,1,0.9,1.4c0.4,0.4,0.9,0.7,1.3,1
		c1.9,1.1,3.9,2.3,5.8,3.6c3.8,2.4,7.5,5.1,11.1,7.8c1.8,1.4,3.6,2.8,5.3,4.3c0.9,0.7,1.7,1.5,2.7,2.1c1,0.5,2,0.9,3.1,1
		c0.5,0.1,1.1,0.1,1.6,0.1l1.7-0.1l3.3-0.2l6.6-0.3l13.3-0.7l6.6-0.3c0.6,0,1.1,0,1.6-0.1c0.5-0.1,1-0.3,1.5-0.7
		c0.5-0.3,0.9-0.7,1.2-1.2c0.2-0.2,0.3-0.5,0.4-0.8c0.1-0.3,0.2-0.5,0.3-0.8l4.8-13.3l-4.6,13.3c-0.1,0.3-0.2,0.6-0.3,0.8
		c-0.1,0.3-0.3,0.5-0.4,0.8c-0.3,0.5-0.7,0.9-1.2,1.3c-0.5,0.3-1,0.6-1.6,0.7c-0.6,0.1-1.1,0.1-1.7,0.1l-6.6,0.4l-13.3,0.7l-6.6,0.4
		l-3.3,0.2l-1.7,0.1c-0.6,0-1.1,0-1.7-0.1c-1.1-0.2-2.2-0.5-3.2-1.1c-0.5-0.3-1-0.6-1.4-1l-1.3-1.1c-1.7-1.5-3.5-2.9-5.3-4.3
		c-3.6-2.8-7.3-5.4-11.1-7.9c-1.9-1.2-3.8-2.4-5.7-3.6c-0.5-0.3-1-0.6-1.4-1c-0.4-0.4-0.7-0.9-1-1.5c-0.5-1.1-0.5-2.4-0.1-3.5
		C305.1,458.5,306.6,454,307.7,449.4z"/>
	<path class="st13" d="M302.4,407.5c0.5,3.7,1,7.4,1.5,11.2c0.5,3.7,0.9,7.5,1.3,11.2c0.4,3.7,0.7,7.5,1.1,11.2
		c0.3,3.7,0.6,7.5,0.8,11.2l-1.1-11.2c-0.4-3.7-0.7-7.5-1.1-11.2l-1.2-11.2L302.4,407.5z"/>
	<path class="st13" d="M309.8,363.4c-0.8,1.2-1.4,2.4-2,3.7l-0.4,1l-0.4,1c-0.3,0.6-0.5,1.3-0.8,2c-1,2.6-1.8,5.4-2.4,8.1l-0.5,2.1
		c-0.1,0.3-0.1,0.7-0.2,1l-0.2,1l-0.2,1c-0.1,0.3-0.1,0.7-0.2,1.1l-0.3,2.1c-0.1,0.7-0.2,1.4-0.2,2.1l-0.2,2.1
		c-0.1,1.4-0.2,2.8-0.2,4.3c0-1.4,0-2.8,0.1-4.3l0.1-2.1c0-0.7,0.1-1.4,0.2-2.1c0.2-1.4,0.3-2.8,0.6-4.2l0.2-1.1
		c0.1-0.4,0.1-0.7,0.2-1.1l0.4-2.1c0.7-2.8,1.5-5.5,2.5-8.1C306.9,368.3,308.2,365.7,309.8,363.4z"/>
	<path class="st13" d="M474.8,481.9c-0.1-0.9,0-1.7,0.4-2.5c0.4-0.8,1-1.4,1.8-1.7c0.4-0.2,0.8-0.3,1.2-0.3l1.2-0.1l2.4-0.3
		c3.2-0.4,6.3-0.9,9.5-1.5c3.2-0.5,6.3-1.1,9.4-1.8c3.1-0.7,6.2-1.5,9.3-2.5c6.2-1.9,12.2-4.1,18-6.9c2.9-1.4,5.7-3,8.5-4.8
		c0.7-0.5,1.3-0.9,2-1.4c0.3-0.2,0.7-0.4,1.1-0.5c0.4-0.1,0.8-0.1,1.2-0.1c0.8,0.1,1.6,0.5,2.2,1.1c0.6,0.6,1,1.4,1.1,2.2l0,0
		c-0.2-0.8-0.6-1.6-1.2-2.2c-0.6-0.5-1.3-0.9-2.1-1c-0.4-0.1-0.8,0-1.2,0.1c-0.4,0.1-0.7,0.2-1.1,0.5c-0.7,0.5-1.3,1-2,1.4
		c-2.7,1.9-5.5,3.5-8.4,4.9c-5.8,2.9-11.9,5-18.1,6.8c-3.1,0.9-6.2,1.7-9.3,2.4c-3.1,0.7-6.3,1.4-9.4,2c-3.2,0.6-6.3,1-9.5,1.4
		c-0.8,0.1-1.6,0.2-2.4,0.3l-1.2,0.1c-0.4,0-0.8,0.1-1.1,0.3c-0.7,0.3-1.3,0.9-1.7,1.6C474.9,480.1,474.7,481,474.8,481.9
		L474.8,481.9z"/>
	<path class="st13" d="M544.2,460.7c0.9,4.9,1.9,9.8,2.8,14.7l0.2,0.9c0.1,0.3,0.1,0.6,0.2,0.9c0.1,0.6,0,1.3-0.2,1.9
		c-0.3,1.2-1.1,2.3-2.1,3c-1.1,0.6-2.1,1-3.2,1.6c-0.5,0.3-1,0.5-1.6,0.9l-1.5,0.9c-4,2.5-7.8,5.5-11.2,8.9
		c-1.7,1.7-3.3,3.5-4.8,5.4c-0.4,0.5-0.8,1-1.2,1.4c-0.4,0.4-0.9,0.8-1.4,1.1c-0.5,0.3-1,0.6-1.6,0.8c-0.6,0.2-1.1,0.4-1.7,0.5
		c-0.6,0.1-1.2,0.1-1.8,0.1c-0.6,0-1.2-0.1-1.8-0.2c-1.2-0.2-2.3-0.4-3.5-0.6c-2.3-0.4-4.6-0.7-7-0.9c-4.7-0.5-9.3-0.8-14-1
		c-2.3-0.1-4.7-0.1-7-0.2c-0.6,0-1.2,0-1.8-0.1c-0.6-0.1-1.1-0.4-1.6-0.8c-1-0.7-1.7-1.9-2-3.1c-0.6-5-1.1-10-1.6-14.9l0,0l0.9,7.5
		l0.4,3.7l0.2,1.9l0.1,0.9c0,0.3,0.1,0.6,0.1,0.9c0.2,1.2,0.9,2.3,1.9,2.9c0.5,0.3,1,0.6,1.5,0.7c0.6,0.1,1.1,0.1,1.7,0.1
		c2.3,0,4.7,0.1,7,0.1c4.7,0.2,9.4,0.5,14,1.1c2.3,0.3,4.7,0.6,7,1c1.2,0.2,2.3,0.4,3.5,0.6c0.6,0.1,1.1,0.2,1.7,0.2
		c0.6,0,1.2,0,1.7-0.1c0.6-0.1,1.1-0.2,1.7-0.4c0.5-0.2,1.1-0.5,1.6-0.8c0.5-0.3,1-0.7,1.4-1.1c0.4-0.4,0.8-0.9,1.2-1.3
		c1.5-1.9,3.2-3.7,4.9-5.4c3.4-3.4,7.1-6.5,11.2-9.1l1.5-0.9c0.5-0.3,1-0.6,1.6-0.9c0.5-0.3,1.1-0.6,1.6-0.8
		c0.5-0.3,1.1-0.5,1.6-0.8c1-0.6,1.7-1.6,2-2.8c0.2-0.6,0.2-1.2,0.2-1.8c0-0.3-0.1-0.6-0.1-0.9l-0.2-0.9
		C545.8,470.6,545,465.6,544.2,460.7L544.2,460.7z"/>
	<path class="st13" d="M517.3,437.8c-0.2-4.2-0.4-8.3-0.8-12.4c-0.3-4.1-0.8-8.3-1.2-12.4c-1-8.2-2.2-16.4-3.8-24.6
		c-0.4-2-0.8-4.1-1.2-6.1c-0.4-2-0.9-4-1.4-6.1c-0.9-4-2-8-3.1-12c-2.3-7.9-5-15.7-8.3-23.3c1.7,3.8,3.2,7.6,4.6,11.4
		c1.4,3.9,2.7,7.8,3.8,11.8c1.2,4,2.2,8,3.2,12c0.5,2,0.9,4,1.4,6.1c0.4,2,0.9,4.1,1.2,6.1c1.6,8.1,2.8,16.4,3.7,24.6
		c0.5,4.1,0.9,8.3,1.2,12.4C517,429.5,517.2,433.7,517.3,437.8z"/>
	<path class="st13" d="M471,434.4c1.4-1.6,3.1-2.9,4.9-3.9c0.2-0.1,0.5-0.3,0.7-0.4l0.7-0.3c0.5-0.2,1-0.4,1.5-0.5
		c1-0.3,2-0.4,3.1-0.4c2.1-0.1,4.1,0.4,6.1,1c2,0.6,3.9,1.4,5.8,2.2c1.9,0.8,3.8,1.7,5.7,2.5c1.9,0.8,3.8,1.6,5.8,2.3
		c2,0.6,3.9,1.1,6,1.3c2,0.2,4.1,0.1,6.1-0.3l0,0c-2,0.5-4.1,0.7-6.1,0.6c-2.1-0.1-4.1-0.6-6.1-1.2c-2-0.6-3.9-1.4-5.8-2.3
		c-1.9-0.9-3.7-1.8-5.6-2.7c-1.9-0.9-3.8-1.7-5.8-2.3c-0.5-0.2-1-0.3-1.5-0.4c-0.5-0.1-1-0.2-1.5-0.3c-0.5-0.1-1-0.1-1.5-0.1
		c-0.5,0-1,0-1.5,0c-2,0.1-4,0.6-5.9,1.6C474.2,431.7,472.6,433,471,434.4L471,434.4z"/>
	<path class="st13" d="M438.6,467.8c2.4-3.5,5.3-6.6,8.5-9.4c1.6-1.4,3.2-2.7,4.9-3.9c1.7-1.2,3.5-2.3,5.3-3.3l1.4-0.7
		c0.5-0.2,0.9-0.4,1.4-0.7l1.4-0.7l1.4-0.6c0.5-0.2,1-0.4,1.4-0.6l1.5-0.5l1.5-0.5c0.5-0.1,0.9-0.4,1.4-0.7c0.9-0.6,1.5-1.4,2-2.3
		c0.4-1,0.7-2,0.6-3.1l-0.2-6.5l0.3,6.5c0.1,1.1-0.1,2.2-0.6,3.2c-0.5,1-1.2,1.9-2.1,2.5c-0.4,0.3-0.9,0.5-1.4,0.7l-1.4,0.5
		l-1.4,0.5c-0.5,0.2-0.9,0.4-1.4,0.6l-1.4,0.6l-1.4,0.7c-0.5,0.2-0.9,0.4-1.4,0.7l-1.4,0.7c-1.8,1-3.6,2.1-5.3,3.2
		c-1.7,1.2-3.4,2.4-4.9,3.8c-0.8,0.7-1.6,1.4-2.3,2.1l-1.1,1.1c-0.4,0.4-0.7,0.8-1.1,1.1C441.3,464.5,439.9,466.1,438.6,467.8z"/>
	<path class="st13" d="M559.7,412.7l-4.2,26.1c-1.4,8.7-2.7,17.4-3.9,26.1c-1.2,8.7-2.4,17.4-3.3,26.2l-0.6,6.6
		c-0.2,2.2-0.3,4.4-0.5,6.6c-0.2,2.2-0.3,4.4-0.4,6.6c-0.1,2.2-0.2,4.4-0.3,6.6c0.1-2.2,0.1-4.4,0.2-6.6c0.1-2.2,0.2-4.4,0.3-6.6
		c0.2-2.2,0.3-4.4,0.5-6.6l0.6-6.6c0.9-8.8,1.9-17.5,3.1-26.2c1.2-8.7,2.6-17.4,4-26.1l2.2-13L559.7,412.7z"/>
	<path class="st13" d="M568,368.3c-0.6,1.2-1.1,2.5-1.6,3.7l-0.3,1c-0.1,0.3-0.2,0.6-0.3,1c-0.1,0.3-0.2,0.6-0.3,1l-0.3,1
		c-0.7,2.6-1.3,5.3-1.7,8c-0.2,1.3-0.4,2.7-0.5,4.1c-0.1,0.7-0.1,1.4-0.2,2l-0.1,2l-0.1,1l0,1l0,2c0,1.4,0,2.7,0,4.1l-0.1-2
		c0-0.7-0.1-1.4-0.1-2.1l0-2.1v-1l0-1l0.1-2.1c0-0.7,0.1-1.4,0.2-2c0.1-0.7,0.1-1.4,0.2-2l0.3-2c0.5-2.7,1-5.4,1.8-8
		C565.8,373.3,566.7,370.7,568,368.3z"/>
	<path class="st13" d="M483.8,616.6c-2-6.2-3.9-12.5-5.7-18.8c-1.8-6.3-3.6-12.6-5.3-18.9l-1.3-4.7l-1.2-4.8
		c-0.8-3.2-1.6-6.3-2.4-9.5l-2.4-9.5l-2.3-9.6c-0.8-3.2-1.5-6.4-2.2-9.6l-1.1-4.8l-1-4.8l-1-4.8c-0.3-1.6-0.7-3.2-1-4.8l-1.8-9.7
		c-0.3-1.6-0.6-3.2-0.8-4.9l-0.8-4.9l-0.8-4.9l-0.7-4.9l-0.7-4.9l-0.3-2.4c-0.1-0.8-0.2-1.6-0.3-2.5l-1-9.8l0,0l1.2,9.8
		c0.1,0.8,0.2,1.6,0.3,2.4l0.4,2.4l0.7,4.9l0.7,4.9l0.8,4.9l0.8,4.9c0.3,1.6,0.5,3.2,0.9,4.8l1.8,9.7c0.3,1.6,0.6,3.2,1,4.8l1,4.8
		l1,4.8l1.1,4.8c0.7,3.2,1.4,6.4,2.1,9.6l2.3,9.6c0.8,3.2,1.6,6.4,2.4,9.5c0.8,3.2,1.6,6.3,2.5,9.5l1.3,4.7l1.3,4.7l2.6,9.5
		c0.9,3.2,1.7,6.3,2.6,9.5c0.9,3.2,1.8,6.3,2.7,9.4C482,610.3,482.9,613.5,483.8,616.6L483.8,616.6z"/>
	<path class="st13" d="M556.6,554.9c0.7-3.8,2.1-7.4,3.9-10.8c1.8-3.4,4-6.4,6.5-9.2c2.5-2.8,5.4-5.2,8.4-7.3c3-2.1,6.2-3.9,9.6-5.4
		c3.4-1.4,6.9-2.4,10.5-2.8c3.6-0.4,7.3-0.3,10.8,0.5c3.5,0.8,6.9,2.4,9.9,4.7c1.5,1.1,2.9,2.4,4.1,3.8c1.3,1.4,2.4,2.9,3.4,4.5l0,0
		c-2.1-3.1-4.7-5.9-7.6-8c-3-2.2-6.3-3.7-9.8-4.5c-3.5-0.8-7.1-1-10.7-0.6c-3.6,0.4-7.1,1.3-10.4,2.7c-3.4,1.4-6.6,3.1-9.6,5.3
		c-3,2.1-5.7,4.7-8.2,7.4c-2.5,2.8-4.7,5.8-6.5,9.1C558.9,547.6,557.5,551.2,556.6,554.9L556.6,554.9z"/>
	<path class="st13" d="M366.3,486c-2.8,7.7-5.4,15.5-7.8,23.4c-1.2,3.9-2.4,7.9-3.3,11.9c-0.5,2-0.9,4-1.3,6l-0.6,3
		c-0.2,1-0.7,2-1.4,2.7c-0.4,0.4-0.8,0.6-1.3,0.8c-0.5,0.2-0.9,0.3-1.4,0.5c-0.9,0.3-1.8,0.6-2.8,0.9c-1.8,0.7-3.6,1.4-5.4,2.1
		c-1.8,0.8-3.6,1.6-5.3,2.4c-0.9,0.4-1.7,0.9-2.6,1.3c-0.9,0.5-1.7,0.9-2.6,1.4c-0.4,0.2-0.9,0.5-1.3,0.7l-1.3,0.8
		c-0.8,0.5-1.6,1.1-2.5,1.6c-0.9,0.5-2,0.6-2.9,0.3c-0.5-0.2-0.9-0.4-1.3-0.7c-0.4-0.3-0.7-0.7-1-1.1c-2.6-3-5.3-6-7.9-9.1l0,0
		c2.7,3,5.4,5.9,8.1,8.9c0.3,0.4,0.7,0.8,1,1.1c0.4,0.3,0.8,0.5,1.2,0.7c0.9,0.3,1.9,0.2,2.7-0.3c0.8-0.5,1.6-1.1,2.5-1.6l1.3-0.8
		c0.4-0.3,0.9-0.5,1.3-0.8c3.4-2,6.9-3.7,10.6-5.2c1.8-0.8,3.6-1.4,5.5-2.1c0.9-0.3,1.8-0.6,2.8-0.9c0.5-0.1,0.9-0.3,1.4-0.4
		c0.4-0.2,0.9-0.4,1.2-0.8c0.7-0.7,1.2-1.6,1.4-2.6l0.6-3c0.2-1,0.4-2,0.7-3c0.2-1,0.5-2,0.7-3c0.2-1,0.5-2,0.7-3l0.8-3
		c0.5-2,1.1-4,1.7-6c1.2-4,2.4-7.9,3.8-11.8C363.3,493.7,364.7,489.8,366.3,486L366.3,486z"/>
	<path class="st13" d="M484.2,500.7c2.2,9.7,4.3,19.5,6.3,29.2c1,4.9,2,9.8,3,14.6l0.8,3.7c0.2,1.2,0.7,2.4,1.5,3.3
		c0.7,1,1.7,1.7,2.7,2.2c1.1,0.5,2.2,0.6,3.4,0.8l13.9,2.1l6.9,1.1l3.5,0.5c0.6,0.1,1.1,0.2,1.7,0.2c0.6,0,1.1-0.1,1.7-0.2
		c1.1-0.3,2.1-0.9,3-1.7c0.9-0.8,1.5-1.8,1.9-3c1-2.3,2-4.5,3.1-6.7c1.1-2.2,2.3-4.4,3.6-6.4c1.3-2.1,2.7-4.1,4.3-5.9l0,0
		c-3,3.8-5.5,8.1-7.7,12.5c-1.1,2.2-2.1,4.5-3,6.7c-0.2,0.6-0.5,1.2-0.8,1.7c-0.3,0.5-0.7,1-1.2,1.4c-0.9,0.9-2,1.5-3.1,1.8
		c-0.6,0.2-1.2,0.2-1.8,0.2l-0.4,0l-0.4,0c-0.3,0-0.6-0.1-0.9-0.1l-3.5-0.5l-6.9-1.1l-13.8-2.3c-0.6-0.1-1.2-0.2-1.7-0.3
		c-0.6-0.1-1.2-0.3-1.7-0.5c-1.1-0.5-2-1.3-2.8-2.3c-0.7-1-1.2-2.2-1.5-3.4l-0.8-3.7c-1-4.9-2.1-9.7-3.2-14.6
		C488.1,520.2,486.1,510.5,484.2,500.7L484.2,500.7z"/>
	<path class="st4" d="M337.4,478.6c2.8,0,5.1-2.4,5.1-5.4c0-3-2.3-5.4-5.1-5.4c-2.8,0-5.1,2.4-5.1,5.4
		C332.4,476.2,334.6,478.6,337.4,478.6z"/>
	<path class="st4" d="M516.8,494.5c2.6-1.1,3.8-4.3,2.7-7.1c-1.1-2.8-4-4.1-6.6-2.9c-2.6,1.1-3.8,4.3-2.7,7.1
		C511.2,494.3,514.2,495.7,516.8,494.5z"/>
	<path class="st4" d="M443.9,479.4c2,0,3.7-1.8,3.7-4c0-2.2-1.7-4-3.7-4c-2,0-3.7,1.8-3.7,4C440.2,477.6,441.9,479.4,443.9,479.4z"
		/>
	<path class="st4" d="M455.5,544.1c2,0,3.7-1.8,3.7-4c0-2.2-1.7-4-3.7-4c-2,0-3.7,1.8-3.7,4C451.8,542.3,453.5,544.1,455.5,544.1z"
		/>
	<path class="st4" d="M471.1,606.8c2,0,3.7-1.8,3.7-4c0-2.2-1.7-4-3.7-4c-2,0-3.7,1.8-3.7,4C467.4,605.1,469,606.8,471.1,606.8z"/>
	<path class="st8" d="M628.8,558.2c-1.3,7.4-2.2,15-2.3,22.5c-0.2,11.4-3.6,29-21.7,32.5c-17.4,3.4-25.2-10.3-28.5-20.5
		c-2-6.1-4.5-12-7.7-17.4c-4-6.8-9-19.1-10-38.8c-3.1-60.9-13.6-104.6-19.6-126.4c-1.8-6.6-5.8-12.3-11.2-16.1
		c-8.8-6.1-23.7-17.7-39.9-36.2c0,0-3.7-0.4-5.9-0.1l-3.1,8.8c0,0,3.1,12.9-2.4,15.2c-1.6,0.7-3.4-0.5-3.6-2.3l-0.5-4.2
		c0,0,0,0.1-0.2,0.2c-0.9,1-2.5,0.6-3-0.7c-0.6-1.9-1.8-5-3.7-8.1c-1-1.5-1.3-3.4-1-5.2c0.7-3.5,2.1-9.4,4.5-14.4
		c0.4-0.8,0.9-1.4,1.6-1.9c-0.1-1.3,0.5-2.5,1.5-3.2l3.4-2.4l0.2-0.5c0.6-1.3,1.6-2.3,2.9-2.9c3.8-1.7,12.5-5.5,20.4-7.4l-9.6-9.5
		l-13.8-1.1c0,0-6.6,4-11.5,0.7c-1.5-1-1.4-3.4,0.2-4.2c2.4-1.2,5.7-3,8.4-4.8c0.5-0.3,1-0.5,1.5-0.6c2.7-0.3,11.5-1.3,17.2-2.5
		c1-0.2,2,0,2.9,0.7c3.8,3,15,11.8,25.2,16.5c1,0.5,1.8,1.3,2.3,2.3c3.1,6.2,15.7,29.2,38,49.6c4.4,4.1,7.8,9.3,9.7,15.2
		c5.9,18.5,19.8,60.5,33.8,89C619.6,513.8,635.3,521.6,628.8,558.2z"/>
	<path class="st10" d="M498.7,328.7c0.7-0.3,1.4-0.5,2.2-0.7c0.7-0.2,1.5-0.4,2.2-0.6c0.7-0.2,1.5-0.4,2.2-0.5l1.1-0.2
		c0.4-0.1,0.7-0.1,1.1-0.2c-0.7,0.2-1.5,0.5-2.2,0.7c-0.7,0.2-1.5,0.4-2.2,0.6c-0.7,0.2-1.5,0.4-2.2,0.5l-1.1,0.2
		C499.4,328.5,499,328.6,498.7,328.7z"/>
	<path class="st10" d="M508.9,326.1c1.3-0.6,2.9-0.5,4.2,0.2c0.6,0.4,1.3,0.8,1.7,1.5c0.1,0.1,0.1,0.1,0.2,0.2l0.2,0.2l0.3,0.5
		c0.2,0.3,0.3,0.7,0.5,1c-0.2-0.3-0.4-0.6-0.6-0.9l-0.3-0.4l-0.2-0.2c-0.1-0.1-0.1-0.1-0.2-0.2l-0.4-0.4c-0.1-0.1-0.3-0.2-0.4-0.3
		c-0.1-0.1-0.1-0.1-0.2-0.2l-0.2-0.1c-0.2-0.1-0.3-0.2-0.5-0.3c-0.6-0.3-1.3-0.5-2-0.6C510.3,325.9,509.6,325.9,508.9,326.1z"/>
	<path class="st10" d="M503.9,333.1c1.3-0.6,2.9-0.5,4.2,0.2c0.6,0.4,1.3,0.8,1.7,1.5c0.1,0.1,0.1,0.1,0.2,0.2l0.2,0.2l0.3,0.5
		c0.2,0.3,0.3,0.7,0.5,1c-0.2-0.3-0.4-0.6-0.6-0.9l-0.3-0.4l-0.2-0.2c-0.1-0.1-0.1-0.1-0.2-0.2l-0.4-0.4c-0.1-0.1-0.3-0.2-0.4-0.3
		c-0.1-0.1-0.1-0.1-0.2-0.2l-0.2-0.1c-0.2-0.1-0.3-0.2-0.5-0.3c-0.6-0.3-1.3-0.5-2-0.6C505.3,333,504.6,333,503.9,333.1z"/>
	<path class="st10" d="M474.9,339.9c0-0.4,0.1-0.7,0.2-1.1c0.1-0.3,0.3-0.7,0.5-1c0.2-0.3,0.5-0.6,0.8-0.8c0.3-0.2,0.6-0.4,0.9-0.5
		c-0.2,0.3-0.5,0.5-0.7,0.8c-0.2,0.2-0.5,0.5-0.7,0.8c-0.2,0.3-0.4,0.6-0.6,0.9C475.2,339.2,475.1,339.5,474.9,339.9z"/>
	<path class="st10" d="M500,342.5c1-0.5,2.1-0.5,3.2-0.1c0.3,0.1,0.5,0.2,0.7,0.4c0.2,0.2,0.5,0.3,0.6,0.6c0.2,0.2,0.4,0.4,0.5,0.7
		c0.1,0.2,0.3,0.5,0.4,0.8c-0.3-0.4-0.7-0.9-1.1-1.2c-0.4-0.4-0.8-0.6-1.3-0.8c-0.5-0.2-1-0.3-1.5-0.3
		C501,342.3,500.5,342.3,500,342.5z"/>
	<path class="st10" d="M481.6,357.7c-1.3,0-2.5,0-3.8,0.1l-1.9,0.1c-0.6,0-1.3,0.1-1.9,0.1l0.1-0.1c-0.1,0.6-0.2,1.1-0.3,1.7
		c-0.1,0.6-0.2,1.1-0.4,1.7c-0.1,0.6-0.3,1.1-0.5,1.7c-0.2,0.5-0.4,1.1-0.7,1.6l0-0.2c0.4,0.9,0.8,1.8,1,2.7
		c0.2,0.9,0.4,1.9,0.4,2.9c0,1-0.1,1.9-0.4,2.9c-0.1,0.5-0.3,0.9-0.6,1.3c-0.2,0.4-0.5,0.8-0.8,1.1l0,0c0.5-0.8,0.9-1.6,1.2-2.5
		c0.2-0.9,0.3-1.8,0.3-2.8c0-0.9-0.2-1.9-0.4-2.8c-0.2-0.9-0.5-1.8-0.9-2.6l0-0.1l0-0.1c0.3-0.5,0.5-1,0.7-1.5
		c0.2-0.5,0.4-1.1,0.5-1.6c0.1-0.5,0.3-1.1,0.4-1.7c0.1-0.6,0.2-1.1,0.2-1.7l0-0.1l0.1,0c0.6-0.1,1.3-0.2,1.9-0.2
		c0.6,0,1.3-0.1,1.9-0.1c0.6,0,1.3,0,1.9,0C480.4,357.6,481,357.6,481.6,357.7L481.6,357.7z"/>
	<path class="st8" d="M237.2,526.7c0,0,24.2,1.2,28.1,30c3.9,28.8-19,37.6-19,37.6s-38.8-13.6-71.8-38.2c0,0-10.3,3.3-20.2-2
		c0,0-11.3-0.9-21-7.3c-1.1-0.7-2-1.6-2.7-2.7c-1.2-1.9-3.8-5.5-7.8-10.2c-2.6-3-3.3-7.4-1.8-11.3c0.4-1.1,1-2.3,1.7-3.6l0.7-6
		c0.5-3.7,2.1-7.2,4.7-9.8l2.2-2.1l0.8-7.2c0.3-2.5,2-4.6,4.3-5.1l3-0.6l2.9-4.2c1.7-2.4,4.1-4.1,6.9-4.8c4.1-1.1,8.4,0.2,11.4,3.4
		c5.9,6.3,16.7,16.4,28,18.8c2.7,0.6,5,2.5,6.3,5.1c2,4.2,4.7,10.8,5.5,17.7L237.2,526.7z"/>
	<path class="st14" d="M186.8,561.2c0.3-0.1,0.4-0.5,0.3-0.8l-1.4-3.3c-0.1-0.3-0.5-0.5-0.8-0.3c-0.3,0.1-0.4,0.5-0.3,0.8l1.4,3.3
		C186.2,561.2,186.5,561.4,186.8,561.2z"/>
	<path class="st4" d="M145.6,447.6l30.8,73.9c4.7,11.3,8,23.1,9.9,35.3l-2.1,1c-7.2-9.6-13.2-20.2-17.9-31.5l-30.8-73.9
		c-0.4-1,0-2.2,0.9-2.6l6.8-3.2C144.1,446.1,145.2,446.6,145.6,447.6z"/>
	<path class="st5" d="M137.5,449.3l4.6-2.2l-2.7-6.6c-0.3-0.7-1-0.9-1.6-0.7l-2.4,1.1c-0.6,0.3-0.9,1.1-0.6,1.7L137.5,449.3z"/>
	<path class="st5" d="M168.3,495.2c0.8-0.4,1.2-1.4,0.8-2.2l-16.6-41.8c-1.1-2.7-4-4-6.5-2.8l2.2,5.3c1.3-0.5,2.7,0.1,3.2,1.4
		l16.6,39.9C168,495.2,168.1,495.3,168.3,495.2z"/>
	<path class="st2" d="M173.6,541.6l8.4-4l0-0.1l-8.5,4L173.6,541.6z"/>
	<path class="st2" d="M168.9,503.5l-10.2,4.9l0,0.1l10.2-4.9L168.9,503.5z"/>
	<path class="st2" d="M168,501.2l-10.2,4.9l0,0.1l10.2-4.9L168,501.2z"/>
	<path class="st8" d="M174.1,516.5c0,0-9.1-1.8-11.6-8.4c-3.2-8.3,8.9-9.3,8.9-9.3l2.5-1.5c2.3-1.4,5.1-1.4,7.3,0.2
		c4.6,3.4,8.8,4.2,10,5.8c0,0,0.9,9.8-11.2,18.5L174.1,516.5z"/>
	<path class="st8" d="M147.6,486.4L135,501.4l12,12.2l10.4,12.4c0,0,10,10.6,14.4,4.2c4.4-6.4-8.1-16.7-8.1-16.7
		S154.7,495,147.6,486.4z"/>
	<path class="st10" d="M138.4,488.4c-0.5,2.4-1.3,4.7-1.3,7.1c-0.1,2.4,0.4,4.8,1.2,7.1c0.9,2.2,2.2,4.3,3.8,5.9
		c1.6,1.7,3.3,3.4,5,5h0l0,0l4.8,5.7c1.6,1.9,3.2,3.8,4.8,5.7l0.6,0.7c0.2,0.2,0.4,0.4,0.6,0.7c0.4,0.4,0.9,0.8,1.3,1.3
		c0.9,0.8,1.9,1.6,2.9,2.3c1,0.7,2,1.3,3.2,1.8c1.1,0.4,2.3,0.8,3.5,0.6l0,0c-1.2,0.2-2.4,0-3.6-0.4c-1.1-0.4-2.2-1-3.2-1.7
		c-1-0.7-2-1.4-2.9-2.2c-0.5-0.4-0.9-0.8-1.4-1.3c-0.2-0.2-0.5-0.4-0.6-0.7l-0.6-0.7c-1.6-1.9-3.2-3.8-4.8-5.7l-4.7-5.8l0,0
		c-1.6-1.7-3.3-3.4-4.9-5c-1.7-1.6-3.1-3.6-4-5.9c-0.9-2.3-1.3-4.8-1.2-7.2c0.1-1.2,0.3-2.4,0.6-3.6L138.4,488.4L138.4,488.4z"/>
	<path class="st10" d="M162.9,530.5c3.1,3,6,6.2,8.7,9.6c1.4,1.7,2.7,3.4,3.9,5.3c0.6,0.9,1.1,1.9,1.6,2.9c0.4,1,0.8,2.1,0.7,3.3
		c0,0.6-0.2,1.2-0.5,1.7c-0.3,0.5-0.7,0.9-1.1,1.2c-0.9,0.6-2,0.8-3.1,0.8c-1.1,0-2.1-0.3-3.1-0.7c-1-0.4-1.9-0.9-2.8-1.5
		c-1.8-1.2-3.3-2.7-4.8-4.3c-0.7-0.8-1.4-1.7-2.1-2.4l-2.2-2.3c-3-3.1-6-6.1-9.1-9.1c-1.5-1.5-3.1-3-4.6-4.5
		c-0.8-0.7-1.6-1.5-2.3-2.2c-0.8-0.7-1.6-1.5-2.2-2.4c-0.7-0.9-1.3-1.8-1.8-2.8c-0.5-1-1-2-1.5-2.9c-1-2-1.9-4-2.7-6
		c-0.9-2-1.6-4.1-2.3-6.2c-0.3-1.1-0.6-2.1-0.9-3.2c-0.2-1.1-0.4-2.2-0.4-3.3h0c0,1.1,0.2,2.2,0.5,3.3c0.3,1.1,0.6,2.1,0.9,3.2
		c0.7,2.1,1.5,4.1,2.4,6.2c0.9,2,1.8,4,2.8,6c1,1.9,1.9,3.9,3.3,5.6c0.7,0.8,1.4,1.6,2.2,2.3c0.8,0.7,1.6,1.5,2.4,2.2
		c1.6,1.5,3.1,3,4.6,4.5c3,3,6,6.1,9,9.3l2.2,2.3c0.8,0.8,1.4,1.7,2.1,2.5c1.4,1.6,3,3.1,4.8,4.3c0.9,0.6,1.8,1.1,2.8,1.5
		c1,0.4,2,0.6,3,0.7c1,0,2.1-0.2,2.9-0.8c0.8-0.6,1.4-1.6,1.4-2.7c0.1-1.1-0.3-2.1-0.7-3.1c-0.4-1-1-1.9-1.6-2.9
		c-1.2-1.8-2.5-3.6-3.8-5.3c-1.3-1.7-2.7-3.3-4.2-5C165.8,533.6,164.4,532.1,162.9,530.5L162.9,530.5z"/>
	<path class="st10" d="M161.7,547.6c-2.1-0.4-4.2-0.7-6.3-0.9c-1.1-0.1-2.1-0.1-3.2-0.3c-1.1-0.1-2.1-0.3-3.2-0.6
		c-1-0.3-2.1-0.7-3-1.1c-1-0.5-1.9-1-2.9-1.4c-1.9-1-3.8-2-5.7-3.1c-1.9-1.1-3.7-2.3-5.4-3.6c-0.4-0.3-0.9-0.7-1.3-1
		c-0.4-0.4-0.8-0.7-1.3-1.1c-0.4-0.4-0.8-0.7-1.2-1.1l-0.6-0.6l-0.1-0.1c-0.1-0.1-0.1-0.1-0.1-0.2c-0.1-0.1-0.2-0.2-0.3-0.3
		c-2.6-3.7-4.2-8.2-4.4-12.8l0,0c0.2,2.3,0.7,4.5,1.5,6.6c0.8,2.1,1.8,4.1,3.1,5.9c0.1,0.1,0.2,0.2,0.2,0.3c0,0.1,0.1,0.1,0.1,0.2
		l0.1,0.1l0.6,0.6c0.4,0.4,0.8,0.8,1.2,1.1c0.4,0.4,0.8,0.7,1.2,1.1c0.4,0.3,0.8,0.7,1.3,1c1.7,1.3,3.5,2.6,5.3,3.8
		c1.8,1.2,3.7,2.2,5.7,3.2c1,0.5,1.9,0.9,2.9,1.4c1,0.4,2,0.8,3,1c1,0.3,2.1,0.5,3.1,0.6c1.1,0.1,2.1,0.2,3.2,0.3
		C157.5,546.7,159.6,547,161.7,547.6L161.7,547.6z"/>
	<path class="st10" d="M154.3,554.2c0.9-0.3,1.8-0.7,2.6-1.2c0.8-0.5,1.6-1.1,2.4-1.5c0.5-0.2,0.9-0.4,1.2-0.7
		c0.3-0.3,0.5-0.8,0.6-1.2c0.1-0.5,0-1-0.2-1.4c-0.2-0.4-0.6-0.8-1-1c0.4,0.1,0.9,0.5,1.1,0.9c0.3,0.4,0.4,1,0.3,1.5
		c0,0.5-0.3,1-0.6,1.4c-0.2,0.2-0.4,0.4-0.6,0.5c-0.2,0.1-0.4,0.2-0.6,0.3c-0.8,0.4-1.6,1-2.5,1.4c-0.4,0.2-0.9,0.4-1.3,0.6
		C155.2,554,154.8,554.1,154.3,554.2z"/>
	<path class="st10" d="M174.1,516.5c0.8,0.6,1.5,1.3,2.3,1.9c0.4,0.3,0.8,0.6,1.1,1c0.4,0.4,0.7,0.7,1,1.2c0.6,0.8,1.1,1.8,1.4,2.8
		c0.2,0.5,0.3,1,0.3,1.5c0.1,0.5,0.1,1,0.2,1.5c0.3,2,0.8,4,1.6,5.9c0.8,1.9,1.9,3.6,3.3,5c-0.7-0.7-1.4-1.4-2-2.2
		c-0.6-0.8-1.1-1.7-1.5-2.7c-0.9-1.9-1.4-3.9-1.7-6c-0.1-0.5-0.1-1-0.2-1.5c-0.1-0.5-0.2-1-0.3-1.5c-0.3-1-0.7-1.9-1.3-2.7
		c-0.3-0.4-0.6-0.8-0.9-1.2s-0.7-0.7-1.1-1C175.5,517.9,174.8,517.2,174.1,516.5z"/>
	<path class="st10" d="M199.3,524.5c0.1,0.6,0.2,1.3,0.2,1.9c0,0.6,0,1.3,0,1.9c-0.1,1.3-0.3,2.6-0.6,3.8c-0.3,1.2-0.7,2.5-1.3,3.6
		c-0.2,0.6-0.6,1.1-0.9,1.7c-0.1,0.3-0.3,0.5-0.5,0.8c-0.2,0.3-0.3,0.5-0.5,0.8c0.6-1.1,1.1-2.3,1.6-3.5l0.3-0.9l0.3-0.9
		c0.1-0.3,0.2-0.6,0.3-0.9c0.1-0.3,0.2-0.6,0.3-0.9c0.3-1.2,0.5-2.5,0.7-3.8C199.4,527,199.4,525.8,199.3,524.5z"/>
	<path class="st10" d="M470.3,345.2c-0.1-0.7,0.1-1.4,0.4-2c0.2-0.3,0.4-0.6,0.6-0.8c0.2-0.3,0.5-0.5,0.8-0.7
		c0.5-0.4,1.1-0.8,1.6-1.2c0.6-0.4,1.1-0.7,1.8-0.9c0.6-0.2,1.3-0.4,1.9-0.5l1.9-0.3c1.3-0.2,2.6-0.5,3.8-0.7c2.6-0.5,5.1-1,7.6-1.6
		c1.3-0.3,2.5-0.6,3.8-1c1.2-0.4,2.5-0.8,3.7-1.3c-1.2,0.6-2.4,1.1-3.6,1.5c-1.2,0.4-2.5,0.8-3.8,1.1c-2.5,0.6-5.1,1.2-7.6,1.7
		c-1.3,0.2-2.6,0.5-3.8,0.7l-1.9,0.3c-0.6,0.1-1.3,0.3-1.9,0.5c-0.6,0.2-1.2,0.5-1.7,0.9c-0.5,0.4-1.1,0.8-1.6,1.1
		c-0.3,0.2-0.5,0.4-0.8,0.6c-0.2,0.2-0.4,0.5-0.6,0.8C470.4,343.8,470.2,344.5,470.3,345.2z"/>
	<path class="st10" d="M472,375.2c-0.4,0.7-1.2,1-1.9,0.8c-0.4-0.1-0.7-0.3-1-0.6c-0.3-0.3-0.4-0.7-0.5-1c-0.5-1.4-1.1-2.8-1.7-4.2
		c-0.6-1.4-1.4-2.6-2.2-3.9c-0.7-1.3-1-3-0.8-4.5c0.3-1.5,0.6-3,1-4.4c0.4-1.5,0.8-2.9,1.3-4.4c0.5-1.4,1-2.9,1.5-4.3
		c0.3-0.7,0.6-1.4,0.9-2.1c0.4-0.7,0.9-1.2,1.5-1.7l0,0c1-0.7,2.1-1.2,3.3-1.4c0.6-0.1,1.2-0.1,1.8-0.1l1.8,0c2.3,0,4.7,0.1,7,0.1
		c2.3,0,4.7,0,7-0.1c1.2-0.1,2.3-0.1,3.5-0.3c0.6-0.1,1.2-0.1,1.7-0.2c0.3-0.1,0.6-0.1,0.9-0.2l0.9-0.2l0,0l-0.8,0.3
		c-0.3,0.1-0.6,0.1-0.9,0.2c-0.6,0.1-1.2,0.2-1.7,0.3c-1.2,0.2-2.3,0.3-3.5,0.3c-2.3,0.1-4.7,0.2-7,0.2c-2.3,0-4.7,0-7-0.1l-1.8,0
		c-0.6,0-1.2,0-1.7,0c-1.1,0.1-2.3,0.6-3.2,1.3l0,0c-0.6,0.4-1.1,0.9-1.5,1.6c-0.3,0.7-0.7,1.3-1,2c-0.6,1.4-1.1,2.8-1.6,4.2
		c-0.9,2.9-1.6,5.8-2.1,8.8c-0.2,1.5,0.1,3,0.8,4.3c0.8,1.3,1.5,2.6,2.1,3.9c0.6,1.4,1.2,2.8,1.6,4.2c0.1,0.4,0.2,0.7,0.5,1
		c0.2,0.3,0.5,0.5,0.9,0.6C470.8,376.1,471.6,375.8,472,375.2L472,375.2z"/>
	<path class="st10" d="M476.1,381.7c-0.3,0.2-0.7,0.3-1.1,0.3c-0.4,0-0.8-0.1-1.1-0.3c-0.7-0.3-1.3-1-1.5-1.8
		c-0.1-0.4-0.1-0.8-0.2-1.2c0-0.4-0.1-0.8-0.1-1.2l-0.1-1.2c0-0.4-0.1-0.8-0.1-1.2c0.1,0.4,0.2,0.8,0.2,1.2l0.2,1.2
		c0.1,0.4,0.1,0.8,0.2,1.2c0.1,0.4,0.1,0.8,0.2,1.1c0.2,0.7,0.7,1.3,1.3,1.7C474.6,381.8,475.4,381.9,476.1,381.7z"/>
	<path class="st0" d="M208.1,593.6l96.8,18.8C304.8,612.4,215.1,572.4,208.1,593.6z"/>
	<path class="st0" d="M208.1,593.6c-24-25.2-123.9,0.5-123.9,0.5v18.2h123.9V593.6z"/>
	<path class="st4" d="M304.2,616.7l-92.7-18.8l0.6-4.3l92.8,18.8L304.2,616.7z"/>
	<path class="st4" d="M212.1,593.6h-4.1v23.1h4.1V593.6z"/>
	<path class="st4" d="M210.1,612.3H80.6v4.3h129.5V612.3z"/>
	<path class="st1" d="M662.7,616.1H3.4v1.1h659.3V616.1z"/>
	<path class="st2" d="M614.3,219.3c-12.6-14.1-33.4-14.6-46.6-1.2c-9.9,10.1-12.6,25.3-8,38.2L549,267.6l17.5,0.4
		c12.6,14.1,33.4,14.6,46.6,1.2C626.4,255.8,626.9,233.4,614.3,219.3z"/>
	<path class="st11" d="M549.1,267.6c0.8-1,1.7-2,2.6-2.9c0.9-1,1.7-1.9,2.6-2.8c0.9-0.9,1.8-1.9,2.7-2.8c0.9-0.9,1.8-1.8,2.7-2.7
		c-0.8,1-1.7,2-2.6,2.9c-0.9,1-1.7,1.9-2.6,2.8c-0.9,0.9-1.8,1.9-2.7,2.8C550.9,265.8,550,266.7,549.1,267.6z"/>
	<path class="st11" d="M566.6,268.1c-1.5,0-2.9,0-4.4,0c-1.5,0-2.9,0-4.4-0.1c-1.5,0-2.9-0.1-4.4-0.1c-1.5-0.1-2.9-0.1-4.4-0.2
		c1.5,0,2.9,0,4.4,0c1.5,0,2.9,0,4.4,0.1c1.5,0,2.9,0.1,4.4,0.1C563.7,267.9,565.1,268,566.6,268.1z"/>
	<path class="st11" d="M559.6,256.4c-0.7-2-1.3-4.1-1.7-6.2c-0.4-2.1-0.6-4.3-0.6-6.5c0-4.3,0.7-8.7,2.2-12.7
		c1.4-4.1,3.6-7.8,6.3-11c2.7-3.2,6-5.9,9.6-7.9c1.8-1,3.7-1.8,5.7-2.4c2-0.6,4-1,6-1.2c4-0.4,8.2-0.1,12.1,1.1
		c3.9,1.1,7.6,3.1,10.9,5.7c1.6,1.3,3.2,2.8,4.5,4.4c1.4,1.6,2.6,3.3,3.7,5.2c2.2,3.7,3.7,7.8,4.5,12.1c0.8,4.3,0.8,8.7,0.1,13
		c-0.7,4.3-2.1,8.4-4.2,12.2c-2.1,3.7-4.8,7-8,9.7c-3.2,2.7-6.9,4.7-10.8,6c-3.9,1.3-8,1.7-12,1.4c-4-0.3-8-1.5-11.7-3.3
		c-3.7-1.9-7-4.5-9.8-7.6c2.8,3.1,6.2,5.7,9.8,7.5c3.7,1.8,7.6,2.9,11.7,3.2c4,0.3,8.1-0.2,11.9-1.5c3.9-1.3,7.5-3.3,10.6-6
		c1.6-1.3,3-2.8,4.4-4.4c1.3-1.6,2.5-3.4,3.6-5.2c2.1-3.7,3.5-7.8,4.2-12c0.7-4.2,0.6-8.6-0.2-12.8c-0.8-4.2-2.3-8.3-4.5-11.9
		c-1.1-1.8-2.3-3.5-3.7-5.1c-1.4-1.6-2.9-3-4.5-4.3c-3.2-2.6-6.9-4.5-10.8-5.6c-3.9-1.1-7.9-1.5-11.9-1.1c-4,0.4-7.9,1.6-11.5,3.5
		c-3.6,1.9-6.8,4.6-9.6,7.8c-2.7,3.2-4.9,6.9-6.3,10.9c-1.5,4-2.2,8.3-2.3,12.7c0,2.2,0.2,4.3,0.5,6.5
		C558.4,252.2,558.9,254.3,559.6,256.4z"/>
	<path class="st4" d="M599.5,231.4l-9.7,27l-3.7-1.5l4-10.9l-0.6-0.3l-4,10.9l-3.7-1.5l9.7-27L599.5,231.4z"/>
	<path class="st4" d="M600.4,228.8l-8.1-3.4l-0.6,1.7l8.1,3.4L600.4,228.8z"/>
	<path class="st4" d="M589.4,259.2l-8.1-3.4l-0.6,1.7l2.2,6.8l5.9-3.4L589.4,259.2z"/>
</g>
</svg>
